<svg width="83" height="73" viewBox="0 0 83 73" fill="none" xmlns="http://www.w3.org/2000/svg">
<path d="M71.1426 23.4643C62.9698 23.4643 56.3207 17.6165 56.3207 10.4286C56.3207 9.50304 56.4348 8.60097 56.6438 7.73018C54.0277 7.47207 51.5258 6.61432 49.4033 5.21429L41.4988 0L33.5943 5.21429C31.0286 6.90632 27.9086 7.82143 24.7011 7.82143H11.855C11.855 7.82143 11.9113 43.2551 11.9647 43.8209C12.5383 44.0151 13.0689 44.3071 13.518 44.7034L22.337 52.4596C25.1369 54.9221 26.6784 58.1967 26.6784 61.6772V62.5728L41.4988 73L56.3222 62.5701V61.6772C56.3222 58.1954 57.8637 54.9208 60.665 52.4583L69.4825 44.7034C69.9316 44.3084 70.4608 44.0164 71.0329 43.8222C71.0848 43.2564 71.1426 23.4643 71.1426 23.4643Z" fill="#3CC8B4"/>
<path d="M8.89185 67.7856H26.6781V72.9999H8.89185V67.7856Z" fill="#F0F0F0"/>
<path d="M8.89185 67.7856H14.8206V72.9999H8.89185V67.7856Z" fill="#D2D2D2"/>
<path d="M56.3218 67.7856H74.1081V72.9999H56.3218V67.7856Z" fill="#F0F0F0"/>
<path d="M56.3218 67.7856H62.2505V72.9999H56.3218V67.7856Z" fill="#D2D2D2"/>
<path d="M82.9913 33.8931H82.5481C81.0985 33.8931 79.8624 34.8147 79.6238 36.0713L77.6969 46.2392C77.2908 48.3836 76.1332 50.3624 74.3857 51.8993L71.1441 54.7502L73.483 50.6361C73.8936 49.9127 74.1085 49.1149 74.1085 48.3054V47.4698C74.1085 46.3083 72.5122 45.7269 71.5784 46.5481L62.7594 54.3044C60.5361 56.2598 59.2866 58.9125 59.2866 61.6787V67.7859H71.1441V65.2713C71.1441 63.5428 71.9253 61.8847 73.3156 60.6632L79.5274 55.1999C81.7522 53.2433 83.0017 50.5983 83.0002 47.8309C82.9972 42.4341 82.9928 33.8944 82.9913 33.8931Z" fill="#F0C8A0"/>
<path d="M26.0491 57.9062C26.4626 59.1134 26.6775 60.3804 26.6775 61.6775V62.573L41.4979 73.0003L44.4623 70.9146L26.6834 58.4055C26.4596 58.2478 26.2655 58.0692 26.0491 57.9062Z" fill="#1EAA96"/>
<path d="M0.00889452 33.8931H0.45207C1.90165 33.8931 3.1378 34.8147 3.37643 36.0713L5.30328 46.2392C5.7094 48.3836 6.86699 50.3624 8.61449 51.8993L11.856 54.7502L9.51715 50.6361C9.10658 49.9127 8.89166 49.1149 8.89166 48.3054V47.4698C8.89166 46.3083 10.488 45.7269 11.4218 46.5481L20.2408 54.3044C22.4641 56.2598 23.7136 58.9125 23.7136 61.6787V67.7859H11.856V65.2713C11.856 63.5428 11.0749 61.8847 9.68612 60.6632L3.47426 55.1999C1.24801 53.242 -0.00148087 50.597 1.31717e-06 47.8296C0.0029657 42.4341 0.00889452 33.8931 0.00889452 33.8931Z" fill="#F0C8A0"/>
<path d="M65.7208 54.3029L74.0107 47.0121C73.6594 46.1739 72.3788 45.8428 71.5784 46.5467L62.7594 54.3029C60.5361 56.2583 59.2866 58.9111 59.2866 61.6772V67.7858H62.2466V61.6772C62.2466 58.9111 63.496 56.2583 65.7208 54.3029Z" fill="#D2AA82"/>
<path d="M12.6465 60.6632L6.43466 55.1999C4.2099 53.2433 2.96041 50.5983 2.96189 47.8309C2.96337 43.6816 2.96634 37.6891 2.96782 35.1328C2.44164 34.3832 1.5049 33.8931 0.452545 33.8931H0.00936951C0.00788732 33.8944 0.00344058 42.4341 0.00195839 47.8296C-0.00100599 50.597 1.24848 53.242 3.47325 55.1986L9.68511 60.6619C11.0754 61.8847 11.8565 63.5428 11.8565 65.2713V67.7859H14.8165V65.2713C14.8165 63.5428 14.0368 61.8847 12.6465 60.6632Z" fill="#D2AA82"/>
<path d="M71.1422 20.8571C77.6909 20.8571 82.9997 16.1881 82.9997 10.4286C82.9997 4.66903 77.6909 0 71.1422 0C64.5935 0 59.2847 4.66903 59.2847 10.4286C59.2847 16.1881 64.5935 20.8571 71.1422 20.8571Z" fill="#FAB400"/>
<path d="M62.249 10.4286C62.249 5.11131 66.7771 0.732607 72.6244 0.0899462C72.1367 0.0364997 71.6447 0 71.1422 0C64.5939 0 59.2847 4.66939 59.2847 10.4286C59.2847 16.1878 64.5939 20.8571 71.1422 20.8571C71.6447 20.8571 72.1382 20.8206 72.6244 20.7672C66.7757 20.1245 62.249 15.7458 62.249 10.4286Z" fill="#DC9600"/>
<path d="M78.5533 7.8215L69.6602 15.6429L63.7314 10.4286L66.6958 7.8215L69.6602 10.4286L75.589 5.21436L78.5533 7.8215Z" fill="#F0F0F0"/>
<path d="M17.7837 42.1183V39.107V7.82129H11.855C11.855 7.82129 11.9113 43.255 11.9647 43.8207C12.5383 44.015 13.0689 44.307 13.518 44.7032L19.6098 50.0609C18.4404 47.5672 17.7837 44.8818 17.7837 42.1183Z" fill="#1EAA96"/>
<path d="M41.5002 52.1428L56.9134 36.6498C59.9164 33.6308 59.7444 29.0813 56.5192 26.2447C53.1353 23.2687 47.6498 23.2687 44.2674 26.2447L41.5002 28.6785L38.7329 26.2447C35.3491 23.2687 29.8635 23.2687 26.4811 26.2447C23.2559 29.0813 23.0839 33.6308 26.0869 36.6498L41.5002 52.1428Z" fill="#FA6450"/>
<path d="M32.1801 26.2448C33.1347 25.4053 34.2626 24.8305 35.4573 24.4642C32.4173 23.5321 28.9104 24.1083 26.4811 26.2448C23.2559 29.0814 23.0839 33.6309 26.0869 36.65L41.5002 52.1429L44.3504 49.279L31.7874 36.6513C28.783 33.6322 28.9549 29.0814 32.1801 26.2448Z" fill="#DC4632"/>
<path d="M47.1992 28.6782L49.9664 26.2444C50.921 25.4049 52.0489 24.8301 53.2436 24.4638C50.2347 23.5421 46.7768 24.1027 44.3504 26.1858C44.3756 26.2079 41.475 28.656 41.5002 28.6782H47.1992Z" fill="#DC4632"/>
</svg>