<svg width="252" height="90" viewBox="0 0 252 90" fill="none" xmlns="http://www.w3.org/2000/svg">
<path d="M71.7323 23.4643C63.5595 23.4643 56.9104 17.6165 56.9104 10.4286C56.9104 9.50304 57.0245 8.60097 57.2335 7.73018C54.6175 7.47207 52.1155 6.61432 49.993 5.21429L42.0885 0L34.184 5.21429C31.6183 6.90632 28.4983 7.82143 25.2908 7.82143H12.4447C12.4447 7.82143 12.501 43.2551 12.5544 43.8209C13.128 44.0151 13.6586 44.3071 14.1077 44.7034L22.9268 52.4596C25.7266 54.9221 27.2681 58.1967 27.2681 61.6772V62.5728L42.0885 73L56.9119 62.5701V61.6772C56.9119 58.1954 58.4534 54.9208 61.2547 52.4583L70.0723 44.7034C70.5214 44.3084 71.0505 44.0164 71.6226 43.8222C71.6745 43.2564 71.7323 23.4643 71.7323 23.4643Z" fill="#3CC8B4"/>
<path d="M9.48169 67.7856H27.268V72.9999H9.48169V67.7856Z" fill="#F0F0F0"/>
<path d="M9.48169 67.7856H15.4105V72.9999H9.48169V67.7856Z" fill="#D2D2D2"/>
<path d="M56.9117 67.7856H74.698V72.9999H56.9117V67.7856Z" fill="#F0F0F0"/>
<path d="M56.9117 67.7856H62.8405V72.9999H56.9117V67.7856Z" fill="#D2D2D2"/>
<path d="M83.581 33.8931H83.1378C81.6883 33.8931 80.4521 34.8147 80.2135 36.0713L78.2866 46.2392C77.8805 48.3836 76.7229 50.3624 74.9754 51.8993L71.7339 54.7502L74.0728 50.6361C74.4833 49.9127 74.6982 49.1149 74.6982 48.3054V47.4698C74.6982 46.3083 73.1019 45.7269 72.1681 46.5481L63.3491 54.3044C61.1258 56.2598 59.8763 58.9125 59.8763 61.6787V67.7859H71.7339V65.2713C71.7339 63.5428 72.515 61.8847 73.9053 60.6632L80.1171 55.1999C82.3419 53.2433 83.5914 50.5983 83.5899 47.8309C83.5869 42.4341 83.5825 33.8944 83.581 33.8931Z" fill="#F0C8A0"/>
<path d="M26.639 57.9062C27.0526 59.1134 27.2675 60.3804 27.2675 61.6775V62.573L42.0879 73.0003L45.0523 70.9146L27.2734 58.4055C27.0496 58.2478 26.8554 58.0692 26.639 57.9062Z" fill="#1EAA96"/>
<path d="M0.598738 33.8931H1.04191C2.4915 33.8931 3.72764 34.8147 3.96627 36.0713L5.89312 46.2392C6.29924 48.3836 7.45683 50.3624 9.20433 51.8993L12.4459 54.7502L10.107 50.6361C9.69642 49.9127 9.4815 49.1149 9.4815 48.3054V47.4698C9.4815 46.3083 11.0778 45.7269 12.0116 46.5481L20.8306 54.3044C23.0539 56.2598 24.3034 58.9125 24.3034 61.6787V67.7859H12.4459V65.2713C12.4459 63.5428 11.6648 61.8847 10.276 60.6632L4.0641 55.1999C1.83785 53.242 0.588363 50.597 0.589845 47.8296C0.592809 42.4341 0.598738 33.8931 0.598738 33.8931Z" fill="#F0C8A0"/>
<path d="M66.3105 54.3029L74.6004 47.0121C74.2491 46.1739 72.9685 45.8428 72.1681 46.5467L63.3491 54.3029C61.1258 56.2583 59.8763 58.9111 59.8763 61.6772V67.7858H62.8363V61.6772C62.8363 58.9111 64.0858 56.2583 66.3105 54.3029Z" fill="#D2AA82"/>
<path d="M13.2364 60.6632L7.02451 55.1999C4.79974 53.2433 3.55025 50.5983 3.55174 47.8309C3.55322 43.6816 3.55618 37.6891 3.55766 35.1328C3.03149 34.3832 2.09474 33.8931 1.04239 33.8931H0.599213C0.597731 33.8944 0.593284 42.4341 0.591802 47.8296C0.588838 50.597 1.83832 53.242 4.06309 55.1986L10.275 60.6619C11.6652 61.8847 12.4464 63.5428 12.4464 65.2713V67.7859H15.4063V65.2713C15.4063 63.5428 14.6267 61.8847 13.2364 60.6632Z" fill="#D2AA82"/>
<path d="M71.7322 20.8571C78.2809 20.8571 83.5897 16.1881 83.5897 10.4286C83.5897 4.66903 78.2809 0 71.7322 0C65.1834 0 59.8746 4.66903 59.8746 10.4286C59.8746 16.1881 65.1834 20.8571 71.7322 20.8571Z" fill="#FAB400"/>
<path d="M62.839 10.4286C62.839 5.11131 67.3671 0.732607 73.2143 0.0899462C72.7267 0.0364997 72.2346 0 71.7322 0C65.1838 0 59.8746 4.66939 59.8746 10.4286C59.8746 16.1878 65.1838 20.8571 71.7322 20.8571C72.2346 20.8571 72.7282 20.8206 73.2143 20.7672C67.3656 20.1245 62.839 15.7458 62.839 10.4286Z" fill="#DC9600"/>
<path d="M79.1432 7.8215L70.2501 15.6429L64.3213 10.4286L67.2857 7.8215L70.2501 10.4286L76.1788 5.21436L79.1432 7.8215Z" fill="#F0F0F0"/>
<path d="M18.3735 42.1183V39.107V7.82129H12.4447C12.4447 7.82129 12.501 43.255 12.5544 43.8207C13.128 44.015 13.6586 44.307 14.1077 44.7032L20.1995 50.0609C19.0301 47.5672 18.3735 44.8818 18.3735 42.1183Z" fill="#1EAA96"/>
<path d="M42.0899 52.1428L57.5032 36.6498C60.5061 33.6308 60.3342 29.0813 57.1089 26.2447C53.7251 23.2687 48.2395 23.2687 44.8571 26.2447L42.0899 28.6785L39.3226 26.2447C35.9388 23.2687 30.4532 23.2687 27.0708 26.2447C23.8456 29.0813 23.6737 33.6308 26.6766 36.6498L42.0899 52.1428Z" fill="#FA6450"/>
<path d="M32.7699 26.2448C33.7244 25.4053 34.8523 24.8305 36.047 24.4642C33.007 23.5321 29.5002 24.1083 27.0708 26.2448C23.8456 29.0814 23.6737 33.6309 26.6766 36.65L42.0899 52.1429L44.9401 49.279L32.3771 36.6513C29.3727 33.6322 29.5446 29.0814 32.7699 26.2448Z" fill="#DC4632"/>
<path d="M47.7892 28.6782L50.5564 26.2444C51.5109 25.4049 52.6389 24.8301 53.8335 24.4638C50.8247 23.5421 47.3667 24.1027 44.9404 26.1858C44.9656 26.2079 42.0649 28.656 42.0901 28.6782H47.7892Z" fill="#DC4632"/>
<path d="M90.9148 24L83.3648 6.5H87.7398L94.3398 22H91.7648L98.4648 6.5H102.49L94.9148 24H90.9148ZM103.451 24V6.5H107.501V24H103.451ZM114.879 13.55H123.304V16.7H114.879V13.55ZM115.179 20.75H124.704V24H111.154V6.5H124.379V9.75H115.179V20.75ZM131.052 24V9.8H125.452V6.5H140.702V9.8H135.102V24H131.052ZM142.381 24V6.5H145.731L156.056 19.1H154.431V6.5H158.431V24H155.106L144.756 11.4H146.381V24H142.381ZM159.771 24L167.571 6.5H171.571L179.396 24H175.146L168.746 8.55H170.346L163.921 24H159.771ZM163.671 20.25L164.746 17.175H173.746L174.846 20.25H163.671ZM180.712 24V6.5H184.062L191.512 18.85H189.737L197.062 6.5H200.387L200.437 24H196.637L196.612 12.325H197.312L191.462 22.15H189.637L183.662 12.325H184.512V24H180.712ZM97.6648 36.5H101.715V54H97.6648V36.5ZM89.7148 54H85.6648V36.5H89.7148V54ZM97.9648 46.825H89.4148V43.4H97.9648V46.825ZM109.08 43.55H117.505V46.7H109.08V43.55ZM109.38 50.75H118.905V54H105.355V36.5H118.58V39.75H109.38V50.75ZM119.328 54L127.128 36.5H131.128L138.953 54H134.703L128.303 38.55H129.903L123.478 54H119.328ZM123.228 50.25L124.303 47.175H133.303L134.403 50.25H123.228ZM140.268 54V36.5H144.318V50.7H153.093V54H140.268ZM156.846 54V39.8H151.246V36.5H166.496V39.8H160.896V54H156.846ZM180.175 36.5H184.225V54H180.175V36.5ZM172.225 54H168.175V36.5H172.225V54ZM180.475 46.825H171.925V43.4H180.475V46.825ZM85.6648 84V66.5H89.7148V84H85.6648ZM93.368 84V66.5H96.718L107.043 79.1H105.418V66.5H109.418V84H106.093L95.743 71.4H97.368V84H93.368ZM118.808 84.3C117.408 84.3 116.067 84.1167 114.783 83.75C113.5 83.3667 112.467 82.875 111.683 82.275L113.058 79.225C113.808 79.7583 114.692 80.2 115.708 80.55C116.742 80.8833 117.783 81.05 118.833 81.05C119.633 81.05 120.275 80.975 120.758 80.825C121.258 80.6583 121.625 80.4333 121.858 80.15C122.092 79.8667 122.208 79.5417 122.208 79.175C122.208 78.7083 122.025 78.3417 121.658 78.075C121.292 77.7917 120.808 77.5667 120.208 77.4C119.608 77.2167 118.942 77.05 118.208 76.9C117.492 76.7333 116.767 76.5333 116.033 76.3C115.317 76.0667 114.658 75.7667 114.058 75.4C113.458 75.0333 112.967 74.55 112.583 73.95C112.217 73.35 112.033 72.5833 112.033 71.65C112.033 70.65 112.3 69.7417 112.833 68.925C113.383 68.0917 114.2 67.4333 115.283 66.95C116.383 66.45 117.758 66.2 119.408 66.2C120.508 66.2 121.592 66.3333 122.658 66.6C123.725 66.85 124.667 67.2333 125.483 67.75L124.233 70.825C123.417 70.3583 122.6 70.0167 121.783 69.8C120.967 69.5667 120.167 69.45 119.383 69.45C118.6 69.45 117.958 69.5417 117.458 69.725C116.958 69.9083 116.6 70.15 116.383 70.45C116.167 70.7333 116.058 71.0667 116.058 71.45C116.058 71.9 116.242 72.2667 116.608 72.55C116.975 72.8167 117.458 73.0333 118.058 73.2C118.658 73.3667 119.317 73.5333 120.033 73.7C120.767 73.8667 121.492 74.0583 122.208 74.275C122.942 74.4917 123.608 74.7833 124.208 75.15C124.808 75.5167 125.292 76 125.658 76.6C126.042 77.2 126.233 77.9583 126.233 78.875C126.233 79.8583 125.958 80.7583 125.408 81.575C124.858 82.3917 124.033 83.05 122.933 83.55C121.85 84.05 120.475 84.3 118.808 84.3ZM136.276 84.3C133.792 84.3 131.851 83.6083 130.451 82.225C129.051 80.8417 128.351 78.8667 128.351 76.3V66.5H132.401V76.15C132.401 77.8167 132.742 79.0167 133.426 79.75C134.109 80.4833 135.067 80.85 136.301 80.85C137.534 80.85 138.492 80.4833 139.176 79.75C139.859 79.0167 140.201 77.8167 140.201 76.15V66.5H144.201V76.3C144.201 78.8667 143.501 80.8417 142.101 82.225C140.701 83.6083 138.759 84.3 136.276 84.3ZM147.703 84V66.5H155.278C156.845 66.5 158.195 66.7583 159.328 67.275C160.461 67.775 161.336 68.5 161.953 69.45C162.57 70.4 162.878 71.5333 162.878 72.85C162.878 74.15 162.57 75.275 161.953 76.225C161.336 77.1583 160.461 77.875 159.328 78.375C158.195 78.875 156.845 79.125 155.278 79.125H149.953L151.753 77.35V84H147.703ZM158.828 84L154.453 77.65H158.778L163.203 84H158.828ZM151.753 77.8L149.953 75.9H155.053C156.303 75.9 157.236 75.6333 157.853 75.1C158.47 74.55 158.778 73.8 158.778 72.85C158.778 71.8833 158.47 71.1333 157.853 70.6C157.236 70.0667 156.303 69.8 155.053 69.8H149.953L151.753 67.875V77.8ZM163.287 84L171.087 66.5H175.087L182.912 84H178.662L172.262 68.55H173.862L167.437 84H163.287ZM167.187 80.25L168.262 77.175H177.262L178.362 80.25H167.187ZM184.227 84V66.5H187.577L197.902 79.1H196.277V66.5H200.277V84H196.952L186.602 71.4H188.227V84H184.227ZM212.293 84.3C210.943 84.3 209.684 84.0833 208.518 83.65C207.368 83.2 206.368 82.5667 205.518 81.75C204.668 80.9333 204.001 79.975 203.518 78.875C203.051 77.775 202.818 76.5667 202.818 75.25C202.818 73.9333 203.051 72.725 203.518 71.625C204.001 70.525 204.668 69.5667 205.518 68.75C206.384 67.9333 207.393 67.3083 208.543 66.875C209.693 66.425 210.951 66.2 212.318 66.2C213.834 66.2 215.201 66.4667 216.418 67C217.651 67.5167 218.684 68.2833 219.518 69.3L216.918 71.7C216.318 71.0167 215.651 70.5083 214.918 70.175C214.184 69.825 213.384 69.65 212.518 69.65C211.701 69.65 210.951 69.7833 210.268 70.05C209.584 70.3167 208.993 70.7 208.493 71.2C207.993 71.7 207.601 72.2917 207.318 72.975C207.051 73.6583 206.918 74.4167 206.918 75.25C206.918 76.0833 207.051 76.8417 207.318 77.525C207.601 78.2083 207.993 78.8 208.493 79.3C208.993 79.8 209.584 80.1833 210.268 80.45C210.951 80.7167 211.701 80.85 212.518 80.85C213.384 80.85 214.184 80.6833 214.918 80.35C215.651 80 216.318 79.475 216.918 78.775L219.518 81.175C218.684 82.1917 217.651 82.9667 216.418 83.5C215.201 84.0333 213.826 84.3 212.293 84.3ZM225.478 73.55H233.903V76.7H225.478V73.55ZM225.778 80.75H235.303V84H221.753V66.5H234.978V69.75H225.778V80.75Z" fill="black"/>
</svg>
