<svg width="1760" height="457" viewBox="0 0 1760 457" fill="none" xmlns="http://www.w3.org/2000/svg">
<mask id="mask0_237_4923" style="mask-type:alpha" maskUnits="userSpaceOnUse" x="0" y="0" width="1760" height="457">
<rect width="1760" height="457" fill="#2CA2FB"/>
</mask>
<g mask="url(#mask0_237_4923)">
<ellipse cx="126.304" cy="609.935" rx="415.91" ry="453.72" fill="#FD3358"/>
<ellipse cx="63.0119" cy="-75.5765" rx="415.91" ry="453.72" fill="#FCAF3D"/>
<ellipse cx="591.942" cy="-75.5765" rx="415.91" ry="453.72" fill="#7362FE"/>
<ellipse cx="646.192" cy="378.144" rx="415.91" ry="453.72" fill="#0DCA95"/>
<ellipse cx="1536.78" cy="-169.28" rx="415.91" ry="453.72" fill="#2CA2FB"/>
<ellipse cx="1211.29" cy="-75.5765" rx="415.91" ry="453.72" fill="#FD3358"/>
<ellipse cx="1874.33" cy="284.441" rx="415.91" ry="453.72" fill="#7362FE"/>
<ellipse cx="1419.24" cy="871.318" rx="415.91" ry="453.72" fill="#7362FE"/>
<ellipse cx="1739.58" cy="763.72" rx="415.91" ry="453.72" fill="#2CA2FB"/>
<ellipse cx="1179.64" cy="535.96" rx="415.91" ry="453.72" fill="#FCAF3D"/>
</g>
<path d="M80 109C80 97.9543 88.9543 89 100 89H1660C1671.05 89 1680 97.9543 1680 109V349C1680 360.046 1671.05 369 1660 369H100C88.9543 369 80 360.046 80 349V109Z" fill="white"/>
<path d="M240.17 217V178.5H258.21C262.83 178.5 266.35 179.417 268.77 181.25C271.19 183.047 272.4 185.467 272.4 188.51C272.4 190.563 271.923 192.323 270.97 193.79C270.017 195.22 268.733 196.338 267.12 197.145C265.543 197.915 263.82 198.3 261.95 198.3L262.94 196.32C265.103 196.32 267.047 196.723 268.77 197.53C270.493 198.3 271.85 199.437 272.84 200.94C273.867 202.443 274.38 204.313 274.38 206.55C274.38 209.85 273.115 212.417 270.585 214.25C268.055 216.083 264.297 217 259.31 217H240.17ZM247.32 211.39H258.87C261.547 211.39 263.6 210.95 265.03 210.07C266.46 209.19 267.175 207.778 267.175 205.835C267.175 203.928 266.46 202.535 265.03 201.655C263.6 200.738 261.547 200.28 258.87 200.28H246.77V194.725H257.44C259.933 194.725 261.84 194.285 263.16 193.405C264.517 192.525 265.195 191.205 265.195 189.445C265.195 187.648 264.517 186.31 263.16 185.43C261.84 184.55 259.933 184.11 257.44 184.11H247.32V211.39ZM298.896 217V211.06L298.511 209.795V199.4C298.511 197.383 297.906 195.825 296.696 194.725C295.486 193.588 293.652 193.02 291.196 193.02C289.546 193.02 287.914 193.277 286.301 193.79C284.724 194.303 283.386 195.018 282.286 195.935L279.591 190.93C281.167 189.72 283.037 188.822 285.201 188.235C287.401 187.612 289.674 187.3 292.021 187.3C296.274 187.3 299.556 188.327 301.866 190.38C304.212 192.397 305.386 195.532 305.386 199.785V217H298.896ZM289.656 217.385C287.456 217.385 285.531 217.018 283.881 216.285C282.231 215.515 280.947 214.47 280.031 213.15C279.151 211.793 278.711 210.272 278.711 208.585C278.711 206.935 279.096 205.45 279.866 204.13C280.672 202.81 281.974 201.765 283.771 200.995C285.567 200.225 287.951 199.84 290.921 199.84H299.446V204.405H291.416C289.069 204.405 287.492 204.79 286.686 205.56C285.879 206.293 285.476 207.21 285.476 208.31C285.476 209.557 285.971 210.547 286.961 211.28C287.951 212.013 289.326 212.38 291.086 212.38C292.772 212.38 294.276 211.995 295.596 211.225C296.952 210.455 297.924 209.318 298.511 207.815L299.666 211.94C299.006 213.663 297.814 215.002 296.091 215.955C294.404 216.908 292.259 217.385 289.656 217.385ZM292.296 228.165C291.379 228.165 290.591 227.872 289.931 227.285C289.307 226.698 288.996 225.91 288.996 224.92C288.996 223.93 289.307 223.123 289.931 222.5C290.591 221.877 291.379 221.565 292.296 221.565C293.212 221.565 293.982 221.877 294.606 222.5C295.266 223.123 295.596 223.93 295.596 224.92C295.596 225.91 295.266 226.698 294.606 227.285C293.982 227.872 293.212 228.165 292.296 228.165ZM330.324 187.3C332.671 187.3 334.761 187.758 336.594 188.675C338.464 189.592 339.931 191.003 340.994 192.91C342.057 194.78 342.589 197.2 342.589 200.17V217H335.714V201.05C335.714 198.447 335.091 196.503 333.844 195.22C332.634 193.937 330.929 193.295 328.729 193.295C327.116 193.295 325.686 193.625 324.439 194.285C323.192 194.945 322.221 195.935 321.524 197.255C320.864 198.538 320.534 200.17 320.534 202.15V217H313.659V187.63H320.204V195.55L319.049 193.13C320.076 191.26 321.561 189.83 323.504 188.84C325.484 187.813 327.757 187.3 330.324 187.3ZM378.886 217.385C375.806 217.385 373.056 216.743 370.636 215.46C368.252 214.14 366.382 212.343 365.026 210.07C363.669 207.797 362.991 205.212 362.991 202.315C362.991 199.382 363.669 196.797 365.026 194.56C366.382 192.287 368.252 190.508 370.636 189.225C373.056 187.942 375.806 187.3 378.886 187.3C381.746 187.3 384.257 187.887 386.421 189.06C388.621 190.197 390.289 191.883 391.426 194.12L386.146 197.2C385.266 195.807 384.184 194.78 382.901 194.12C381.654 193.46 380.297 193.13 378.831 193.13C377.144 193.13 375.622 193.497 374.266 194.23C372.909 194.963 371.846 196.027 371.076 197.42C370.306 198.777 369.921 200.408 369.921 202.315C369.921 204.222 370.306 205.872 371.076 207.265C371.846 208.622 372.909 209.667 374.266 210.4C375.622 211.133 377.144 211.5 378.831 211.5C380.297 211.5 381.654 211.17 382.901 210.51C384.184 209.85 385.266 208.823 386.146 207.43L391.426 210.51C390.289 212.71 388.621 214.415 386.421 215.625C384.257 216.798 381.746 217.385 378.886 217.385ZM413.215 187.3C415.562 187.3 417.652 187.758 419.485 188.675C421.355 189.592 422.822 191.003 423.885 192.91C424.948 194.78 425.48 197.2 425.48 200.17V217H418.605V201.05C418.605 198.447 417.982 196.503 416.735 195.22C415.525 193.937 413.82 193.295 411.62 193.295C410.007 193.295 408.577 193.625 407.33 194.285C406.083 194.945 405.112 195.935 404.415 197.255C403.755 198.538 403.425 200.17 403.425 202.15V217H396.55V176.19H403.425V195.55L401.94 193.13C402.967 191.26 404.452 189.83 406.395 188.84C408.375 187.813 410.648 187.3 413.215 187.3ZM446.081 217.385C443.588 217.385 441.388 216.927 439.481 216.01C437.575 215.057 436.09 213.627 435.026 211.72C433.963 209.777 433.431 207.338 433.431 204.405V187.63H440.306V203.47C440.306 206.11 440.893 208.09 442.066 209.41C443.276 210.693 444.981 211.335 447.181 211.335C448.795 211.335 450.188 211.005 451.361 210.345C452.571 209.685 453.506 208.695 454.166 207.375C454.863 206.055 455.211 204.423 455.211 202.48V187.63H462.086V217H455.541V209.08L456.696 211.5C455.706 213.407 454.258 214.873 452.351 215.9C450.445 216.89 448.355 217.385 446.081 217.385ZM457.631 192.525V187.63H458.786C459.923 187.63 460.766 187.3 461.316 186.64C461.903 185.98 462.196 185.137 462.196 184.11C462.196 183.45 462.086 182.827 461.866 182.24C461.683 181.653 461.426 181.14 461.096 180.7L465.331 179.16C465.845 179.82 466.248 180.59 466.541 181.47C466.835 182.35 466.981 183.303 466.981 184.33C466.981 186.86 466.248 188.858 464.781 190.325C463.315 191.792 461.298 192.525 458.731 192.525H457.631ZM488.687 217V211.06L488.302 209.795V199.4C488.302 197.383 487.697 195.825 486.487 194.725C485.277 193.588 483.443 193.02 480.987 193.02C479.337 193.02 477.705 193.277 476.092 193.79C474.515 194.303 473.177 195.018 472.077 195.935L469.382 190.93C470.958 189.72 472.828 188.822 474.992 188.235C477.192 187.612 479.465 187.3 481.812 187.3C486.065 187.3 489.347 188.327 491.657 190.38C494.003 192.397 495.177 195.532 495.177 199.785V217H488.687ZM479.447 217.385C477.247 217.385 475.322 217.018 473.672 216.285C472.022 215.515 470.738 214.47 469.822 213.15C468.942 211.793 468.502 210.272 468.502 208.585C468.502 206.935 468.887 205.45 469.657 204.13C470.463 202.81 471.765 201.765 473.562 200.995C475.358 200.225 477.742 199.84 480.712 199.84H489.237V204.405H481.207C478.86 204.405 477.283 204.79 476.477 205.56C475.67 206.293 475.267 207.21 475.267 208.31C475.267 209.557 475.762 210.547 476.752 211.28C477.742 212.013 479.117 212.38 480.877 212.38C482.563 212.38 484.067 211.995 485.387 211.225C486.743 210.455 487.715 209.318 488.302 207.815L489.457 211.94C488.797 213.663 487.605 215.002 485.882 215.955C484.195 216.908 482.05 217.385 479.447 217.385ZM531.575 217.385C528.495 217.385 525.745 216.743 523.325 215.46C520.942 214.14 519.072 212.343 517.715 210.07C516.358 207.797 515.68 205.212 515.68 202.315C515.68 199.382 516.358 196.797 517.715 194.56C519.072 192.287 520.942 190.508 523.325 189.225C525.745 187.942 528.495 187.3 531.575 187.3C534.435 187.3 536.947 187.887 539.11 189.06C541.31 190.197 542.978 191.883 544.115 194.12L538.835 197.2C537.955 195.807 536.873 194.78 535.59 194.12C534.343 193.46 532.987 193.13 531.52 193.13C529.833 193.13 528.312 193.497 526.955 194.23C525.598 194.963 524.535 196.027 523.765 197.42C522.995 198.777 522.61 200.408 522.61 202.315C522.61 204.222 522.995 205.872 523.765 207.265C524.535 208.622 525.598 209.667 526.955 210.4C528.312 211.133 529.833 211.5 531.52 211.5C532.987 211.5 534.343 211.17 535.59 210.51C536.873 209.85 537.955 208.823 538.835 207.43L544.115 210.51C542.978 212.71 541.31 214.415 539.11 215.625C536.947 216.798 534.435 217.385 531.575 217.385ZM562.278 217.385C559.272 217.385 556.595 216.743 554.248 215.46C551.902 214.14 550.05 212.343 548.693 210.07C547.337 207.797 546.658 205.212 546.658 202.315C546.658 199.382 547.337 196.797 548.693 194.56C550.05 192.287 551.902 190.508 554.248 189.225C556.595 187.942 559.272 187.3 562.278 187.3C565.322 187.3 568.017 187.942 570.363 189.225C572.747 190.508 574.598 192.268 575.918 194.505C577.275 196.742 577.953 199.345 577.953 202.315C577.953 205.212 577.275 207.797 575.918 210.07C574.598 212.343 572.747 214.14 570.363 215.46C568.017 216.743 565.322 217.385 562.278 217.385ZM562.278 211.5C563.965 211.5 565.468 211.133 566.788 210.4C568.108 209.667 569.135 208.603 569.868 207.21C570.638 205.817 571.023 204.185 571.023 202.315C571.023 200.408 570.638 198.777 569.868 197.42C569.135 196.027 568.108 194.963 566.788 194.23C565.468 193.497 563.983 193.13 562.333 193.13C560.647 193.13 559.143 193.497 557.823 194.23C556.54 194.963 555.513 196.027 554.743 197.42C553.973 198.777 553.588 200.408 553.588 202.315C553.588 204.185 553.973 205.817 554.743 207.21C555.513 208.603 556.54 209.667 557.823 210.4C559.143 211.133 560.628 211.5 562.278 211.5ZM557.603 183.615L565.028 176.08H573.113L563.543 183.615H557.603ZM598.628 217V176.19H605.503V217H598.628ZM626.406 217.385C623.913 217.385 621.713 216.927 619.806 216.01C617.9 215.057 616.415 213.627 615.351 211.72C614.288 209.777 613.756 207.338 613.756 204.405V187.63H620.631V203.47C620.631 206.11 621.218 208.09 622.391 209.41C623.601 210.693 625.306 211.335 627.506 211.335C629.12 211.335 630.513 211.005 631.686 210.345C632.896 209.685 633.831 208.695 634.491 207.375C635.188 206.055 635.536 204.423 635.536 202.48V187.63H642.411V217H635.866V209.08L637.021 211.5C636.031 213.407 634.583 214.873 632.676 215.9C630.77 216.89 628.68 217.385 626.406 217.385ZM637.956 192.525V187.63H639.111C640.248 187.63 641.091 187.3 641.641 186.64C642.228 185.98 642.521 185.137 642.521 184.11C642.521 183.45 642.411 182.827 642.191 182.24C642.008 181.653 641.751 181.14 641.421 180.7L645.656 179.16C646.17 179.82 646.573 180.59 646.866 181.47C647.16 182.35 647.306 183.303 647.306 184.33C647.306 186.86 646.573 188.858 645.106 190.325C643.64 191.792 641.623 192.525 639.056 192.525H637.956ZM628.056 228.165C627.14 228.165 626.351 227.872 625.691 227.285C625.068 226.698 624.756 225.91 624.756 224.92C624.756 223.93 625.068 223.123 625.691 222.5C626.351 221.877 627.14 221.565 628.056 221.565C628.973 221.565 629.743 221.877 630.366 222.5C631.026 223.123 631.356 223.93 631.356 224.92C631.356 225.91 631.026 226.698 630.366 227.285C629.743 227.872 628.973 228.165 628.056 228.165ZM669.011 217V211.06L668.626 209.795V199.4C668.626 197.383 668.021 195.825 666.811 194.725C665.601 193.588 663.768 193.02 661.311 193.02C659.661 193.02 658.03 193.277 656.416 193.79C654.84 194.303 653.501 195.018 652.401 195.935L649.706 190.93C651.283 189.72 653.153 188.822 655.316 188.235C657.516 187.612 659.79 187.3 662.136 187.3C666.39 187.3 669.671 188.327 671.981 190.38C674.328 192.397 675.501 195.532 675.501 199.785V217H669.011ZM659.771 217.385C657.571 217.385 655.646 217.018 653.996 216.285C652.346 215.515 651.063 214.47 650.146 213.15C649.266 211.793 648.826 210.272 648.826 208.585C648.826 206.935 649.211 205.45 649.981 204.13C650.788 202.81 652.09 201.765 653.886 200.995C655.683 200.225 658.066 199.84 661.036 199.84H669.561V204.405H661.531C659.185 204.405 657.608 204.79 656.801 205.56C655.995 206.293 655.591 207.21 655.591 208.31C655.591 209.557 656.086 210.547 657.076 211.28C658.066 212.013 659.441 212.38 661.201 212.38C662.888 212.38 664.391 211.995 665.711 211.225C667.068 210.455 668.04 209.318 668.626 207.815L669.781 211.94C669.121 213.663 667.93 215.002 666.206 215.955C664.52 216.908 662.375 217.385 659.771 217.385ZM711.9 217.385C708.82 217.385 706.07 216.743 703.65 215.46C701.267 214.14 699.397 212.343 698.04 210.07C696.683 207.797 696.005 205.212 696.005 202.315C696.005 199.382 696.683 196.797 698.04 194.56C699.397 192.287 701.267 190.508 703.65 189.225C706.07 187.942 708.82 187.3 711.9 187.3C714.76 187.3 717.272 187.887 719.435 189.06C721.635 190.197 723.303 191.883 724.44 194.12L719.16 197.2C718.28 195.807 717.198 194.78 715.915 194.12C714.668 193.46 713.312 193.13 711.845 193.13C710.158 193.13 708.637 193.497 707.28 194.23C705.923 194.963 704.86 196.027 704.09 197.42C703.32 198.777 702.935 200.408 702.935 202.315C702.935 204.222 703.32 205.872 704.09 207.265C704.86 208.622 705.923 209.667 707.28 210.4C708.637 211.133 710.158 211.5 711.845 211.5C713.312 211.5 714.668 211.17 715.915 210.51C717.198 209.85 718.28 208.823 719.16 207.43L724.44 210.51C723.303 212.71 721.635 214.415 719.435 215.625C717.272 216.798 714.76 217.385 711.9 217.385ZM746.229 187.3C748.576 187.3 750.666 187.758 752.499 188.675C754.369 189.592 755.836 191.003 756.899 192.91C757.963 194.78 758.494 197.2 758.494 200.17V217H751.619V201.05C751.619 198.447 750.996 196.503 749.749 195.22C748.539 193.937 746.834 193.295 744.634 193.295C743.021 193.295 741.591 193.625 740.344 194.285C739.098 194.945 738.126 195.935 737.429 197.255C736.769 198.538 736.439 200.17 736.439 202.15V217H729.564V176.19H736.439V195.55L734.954 193.13C735.981 191.26 737.466 189.83 739.409 188.84C741.389 187.813 743.663 187.3 746.229 187.3ZM779.919 217.385C776.913 217.385 774.236 216.743 771.889 215.46C769.543 214.14 767.691 212.343 766.334 210.07C764.978 207.797 764.299 205.212 764.299 202.315C764.299 199.382 764.978 196.797 766.334 194.56C767.691 192.287 769.543 190.508 771.889 189.225C774.236 187.942 776.913 187.3 779.919 187.3C782.963 187.3 785.658 187.942 788.004 189.225C790.388 190.508 792.239 192.268 793.559 194.505C794.916 196.742 795.594 199.345 795.594 202.315C795.594 205.212 794.916 207.797 793.559 210.07C792.239 212.343 790.388 214.14 788.004 215.46C785.658 216.743 782.963 217.385 779.919 217.385ZM779.919 211.5C781.606 211.5 783.109 211.133 784.429 210.4C785.749 209.667 786.776 208.603 787.509 207.21C788.279 205.817 788.664 204.185 788.664 202.315C788.664 200.408 788.279 198.777 787.509 197.42C786.776 196.027 785.749 194.963 784.429 194.23C783.109 193.497 781.624 193.13 779.974 193.13C778.288 193.13 776.784 193.497 775.464 194.23C774.181 194.963 773.154 196.027 772.384 197.42C771.614 198.777 771.229 200.408 771.229 202.315C771.229 204.185 771.614 205.817 772.384 207.21C773.154 208.603 774.181 209.667 775.464 210.4C776.784 211.133 778.269 211.5 779.919 211.5ZM779.864 228.165C778.948 228.165 778.159 227.872 777.499 227.285C776.876 226.698 776.564 225.91 776.564 224.92C776.564 223.93 776.876 223.123 777.499 222.5C778.159 221.877 778.948 221.565 779.864 221.565C780.781 221.565 781.551 221.877 782.174 222.5C782.834 223.123 783.164 223.93 783.164 224.92C783.164 225.91 782.834 226.698 782.174 227.285C781.551 227.872 780.781 228.165 779.864 228.165ZM818.284 187.3C820.63 187.3 822.72 187.758 824.554 188.675C826.424 189.592 827.89 191.003 828.954 192.91C830.017 194.78 830.549 197.2 830.549 200.17V217H823.674V201.05C823.674 198.447 823.05 196.503 821.804 195.22C820.594 193.937 818.889 193.295 816.689 193.295C815.075 193.295 813.645 193.625 812.399 194.285C811.152 194.945 810.18 195.935 809.484 197.255C808.824 198.538 808.494 200.17 808.494 202.15V217H801.619V187.63H808.164V195.55L807.009 193.13C808.035 191.26 809.52 189.83 811.464 188.84C813.444 187.813 815.717 187.3 818.284 187.3ZM861.07 204.24C861.07 202.883 861.29 201.692 861.73 200.665C862.17 199.638 862.739 198.722 863.435 197.915C864.132 197.108 864.865 196.357 865.635 195.66C866.442 194.963 867.194 194.285 867.89 193.625C868.587 192.965 869.155 192.268 869.595 191.535C870.035 190.802 870.255 189.977 870.255 189.06C870.255 187.52 869.632 186.273 868.385 185.32C867.139 184.367 865.47 183.89 863.38 183.89C861.364 183.89 859.604 184.257 858.1 184.99C856.634 185.723 855.405 186.768 854.415 188.125L849.08 184.66C850.62 182.57 852.637 180.938 855.13 179.765C857.624 178.555 860.575 177.95 863.985 177.95C866.662 177.95 869.009 178.353 871.025 179.16C873.042 179.93 874.619 181.067 875.755 182.57C876.892 184.037 877.46 185.833 877.46 187.96C877.46 189.427 877.222 190.71 876.745 191.81C876.305 192.91 875.719 193.882 874.985 194.725C874.289 195.532 873.537 196.302 872.73 197.035C871.924 197.732 871.154 198.428 870.42 199.125C869.724 199.822 869.155 200.573 868.715 201.38C868.275 202.187 868.055 203.14 868.055 204.24H861.07ZM864.59 217.385C863.307 217.385 862.244 216.963 861.4 216.12C860.594 215.277 860.19 214.268 860.19 213.095C860.19 211.922 860.594 210.932 861.4 210.125C862.244 209.282 863.307 208.86 864.59 208.86C865.874 208.86 866.919 209.282 867.725 210.125C868.532 210.932 868.935 211.922 868.935 213.095C868.935 214.268 868.532 215.277 867.725 216.12C866.919 216.963 865.874 217.385 864.59 217.385Z" fill="#000E29"/>
<path d="M238.28 275V261H244.32C245.88 261 247.087 261.313 247.94 261.94C248.807 262.567 249.24 263.453 249.24 264.6C249.24 265.36 249.06 266 248.7 266.52C248.353 267.04 247.873 267.433 247.26 267.7C246.66 267.967 246 268.1 245.28 268.1L245.62 267.62C246.513 267.62 247.28 267.76 247.92 268.04C248.573 268.307 249.08 268.713 249.44 269.26C249.8 269.793 249.98 270.46 249.98 271.26C249.98 272.447 249.54 273.367 248.66 274.02C247.793 274.673 246.48 275 244.72 275H238.28ZM239.76 273.78H244.7C245.927 273.78 246.867 273.573 247.52 273.16C248.173 272.733 248.5 272.06 248.5 271.14C248.5 270.233 248.173 269.573 247.52 269.16C246.867 268.733 245.927 268.52 244.7 268.52H239.6V267.3H244.22C245.34 267.3 246.207 267.087 246.82 266.66C247.447 266.233 247.76 265.6 247.76 264.76C247.76 263.907 247.447 263.273 246.82 262.86C246.207 262.433 245.34 262.22 244.22 262.22H239.76V273.78ZM259.638 275V272.68L259.578 272.3V268.42C259.578 267.527 259.325 266.84 258.818 266.36C258.325 265.88 257.585 265.64 256.598 265.64C255.918 265.64 255.271 265.753 254.658 265.98C254.045 266.207 253.525 266.507 253.098 266.88L252.458 265.82C252.991 265.367 253.631 265.02 254.378 264.78C255.125 264.527 255.911 264.4 256.738 264.4C258.098 264.4 259.145 264.74 259.878 265.42C260.625 266.087 260.998 267.107 260.998 268.48V275H259.638ZM256.018 275.1C255.231 275.1 254.545 274.973 253.958 274.72C253.385 274.453 252.945 274.093 252.638 273.64C252.331 273.173 252.178 272.64 252.178 272.04C252.178 271.493 252.305 271 252.558 270.56C252.825 270.107 253.251 269.747 253.838 269.48C254.438 269.2 255.238 269.06 256.238 269.06H259.858V270.12H256.278C255.265 270.12 254.558 270.3 254.158 270.66C253.771 271.02 253.578 271.467 253.578 272C253.578 272.6 253.811 273.08 254.278 273.44C254.745 273.8 255.398 273.98 256.238 273.98C257.038 273.98 257.725 273.8 258.298 273.44C258.885 273.067 259.311 272.533 259.578 271.84L259.898 272.82C259.631 273.513 259.165 274.067 258.498 274.48C257.845 274.893 257.018 275.1 256.018 275.1ZM256.818 278.8C256.591 278.8 256.391 278.72 256.218 278.56C256.045 278.4 255.958 278.193 255.958 277.94C255.958 277.687 256.045 277.48 256.218 277.32C256.391 277.16 256.591 277.08 256.818 277.08C257.058 277.08 257.258 277.16 257.418 277.32C257.591 277.48 257.678 277.687 257.678 277.94C257.678 278.193 257.591 278.4 257.418 278.56C257.258 278.72 257.058 278.8 256.818 278.8ZM270.215 264.4C271.068 264.4 271.815 264.567 272.455 264.9C273.108 265.22 273.615 265.713 273.975 266.38C274.348 267.047 274.535 267.887 274.535 268.9V275H273.115V269.04C273.115 267.933 272.835 267.1 272.275 266.54C271.728 265.967 270.955 265.68 269.955 265.68C269.208 265.68 268.555 265.833 267.995 266.14C267.448 266.433 267.022 266.867 266.715 267.44C266.422 268 266.275 268.68 266.275 269.48V275H264.855V264.5H266.215V267.38L265.995 266.84C266.328 266.08 266.862 265.487 267.595 265.06C268.328 264.62 269.202 264.4 270.215 264.4ZM287.965 275.1C286.925 275.1 285.992 274.873 285.165 274.42C284.352 273.953 283.712 273.32 283.245 272.52C282.778 271.707 282.545 270.78 282.545 269.74C282.545 268.687 282.778 267.76 283.245 266.96C283.712 266.16 284.352 265.533 285.165 265.08C285.992 264.627 286.925 264.4 287.965 264.4C288.858 264.4 289.665 264.573 290.385 264.92C291.105 265.267 291.672 265.787 292.085 266.48L291.025 267.2C290.665 266.667 290.218 266.273 289.685 266.02C289.152 265.767 288.572 265.64 287.945 265.64C287.198 265.64 286.525 265.813 285.925 266.16C285.325 266.493 284.852 266.967 284.505 267.58C284.158 268.193 283.985 268.913 283.985 269.74C283.985 270.567 284.158 271.287 284.505 271.9C284.852 272.513 285.325 272.993 285.925 273.34C286.525 273.673 287.198 273.84 287.945 273.84C288.572 273.84 289.152 273.713 289.685 273.46C290.218 273.207 290.665 272.82 291.025 272.3L292.085 273.02C291.672 273.7 291.105 274.22 290.385 274.58C289.665 274.927 288.858 275.1 287.965 275.1ZM298.979 275.1C297.965 275.1 297.052 274.873 296.239 274.42C295.439 273.953 294.805 273.32 294.339 272.52C293.872 271.707 293.639 270.78 293.639 269.74C293.639 268.687 293.872 267.76 294.339 266.96C294.805 266.16 295.439 265.533 296.239 265.08C297.039 264.627 297.952 264.4 298.979 264.4C300.019 264.4 300.939 264.627 301.739 265.08C302.552 265.533 303.185 266.16 303.639 266.96C304.105 267.76 304.339 268.687 304.339 269.74C304.339 270.78 304.105 271.707 303.639 272.52C303.185 273.32 302.552 273.953 301.739 274.42C300.925 274.873 300.005 275.1 298.979 275.1ZM298.979 273.84C299.739 273.84 300.412 273.673 300.999 273.34C301.585 272.993 302.045 272.513 302.379 271.9C302.725 271.273 302.899 270.553 302.899 269.74C302.899 268.913 302.725 268.193 302.379 267.58C302.045 266.967 301.585 266.493 300.999 266.16C300.412 265.813 299.745 265.64 298.999 265.64C298.252 265.64 297.585 265.813 296.999 266.16C296.412 266.493 295.945 266.967 295.599 267.58C295.252 268.193 295.079 268.913 295.079 269.74C295.079 270.553 295.252 271.273 295.599 271.9C295.945 272.513 296.412 272.993 296.999 273.34C297.585 273.673 298.245 273.84 298.979 273.84ZM297.679 262.86L300.419 260.38H302.319L299.079 262.86H297.679ZM315.792 275.1C314.806 275.1 314.046 274.833 313.512 274.3C312.979 273.767 312.712 273.013 312.712 272.04V262.18H314.132V271.96C314.132 272.573 314.286 273.047 314.592 273.38C314.912 273.713 315.366 273.88 315.952 273.88C316.579 273.88 317.099 273.7 317.512 273.34L318.012 274.36C317.732 274.613 317.392 274.8 316.992 274.92C316.606 275.04 316.206 275.1 315.792 275.1ZM310.832 265.68V264.5H317.332V265.68H310.832ZM325.957 264.4C326.811 264.4 327.557 264.567 328.197 264.9C328.851 265.22 329.357 265.713 329.717 266.38C330.091 267.047 330.277 267.887 330.277 268.9V275H328.857V269.04C328.857 267.933 328.577 267.1 328.017 266.54C327.471 265.967 326.697 265.68 325.697 265.68C324.951 265.68 324.297 265.833 323.737 266.14C323.191 266.433 322.764 266.867 322.457 267.44C322.164 268 322.017 268.68 322.017 269.48V275H320.597V260.16H322.017V267.38L321.737 266.84C322.071 266.08 322.604 265.487 323.337 265.06C324.071 264.62 324.944 264.4 325.957 264.4ZM338.573 275.1C337.479 275.1 336.519 274.873 335.693 274.42C334.866 273.953 334.219 273.32 333.753 272.52C333.286 271.707 333.053 270.78 333.053 269.74C333.053 268.7 333.273 267.78 333.713 266.98C334.166 266.18 334.779 265.553 335.553 265.1C336.339 264.633 337.219 264.4 338.193 264.4C339.179 264.4 340.053 264.627 340.813 265.08C341.586 265.52 342.193 266.147 342.633 266.96C343.073 267.76 343.293 268.687 343.293 269.74C343.293 269.807 343.286 269.88 343.273 269.96C343.273 270.027 343.273 270.1 343.273 270.18H334.133V269.12H342.513L341.953 269.54C341.953 268.78 341.786 268.107 341.453 267.52C341.133 266.92 340.693 266.453 340.133 266.12C339.573 265.787 338.926 265.62 338.193 265.62C337.473 265.62 336.826 265.787 336.253 266.12C335.679 266.453 335.233 266.92 334.913 267.52C334.593 268.12 334.433 268.807 334.433 269.58V269.8C334.433 270.6 334.606 271.307 334.953 271.92C335.313 272.52 335.806 272.993 336.433 273.34C337.073 273.673 337.799 273.84 338.613 273.84C339.253 273.84 339.846 273.727 340.393 273.5C340.953 273.273 341.433 272.927 341.833 272.46L342.633 273.38C342.166 273.94 341.579 274.367 340.873 274.66C340.179 274.953 339.413 275.1 338.573 275.1ZM334.873 262.86L337.473 260.98H338.873L341.473 262.86H340.113L337.613 261.34H338.733L336.233 262.86H334.873ZM340.793 261.54L340.393 261.04C340.659 260.907 340.866 260.753 341.013 260.58C341.159 260.407 341.233 260.227 341.233 260.04C341.233 259.84 341.159 259.68 341.013 259.56C340.866 259.44 340.673 259.38 340.433 259.38C340.139 259.38 339.853 259.46 339.573 259.62L339.273 259.04C339.459 258.907 339.659 258.813 339.873 258.76C340.099 258.693 340.326 258.66 340.553 258.66C341.006 258.66 341.359 258.787 341.613 259.04C341.866 259.28 341.993 259.587 341.993 259.96C341.993 260.307 341.886 260.62 341.673 260.9C341.473 261.167 341.179 261.38 340.793 261.54ZM356.778 264.4C357.631 264.4 358.378 264.567 359.018 264.9C359.671 265.22 360.178 265.713 360.538 266.38C360.911 267.047 361.098 267.887 361.098 268.9V275H359.678V269.04C359.678 267.933 359.398 267.1 358.838 266.54C358.291 265.967 357.518 265.68 356.518 265.68C355.771 265.68 355.118 265.833 354.558 266.14C354.011 266.433 353.584 266.867 353.278 267.44C352.984 268 352.838 268.68 352.838 269.48V275H351.418V264.5H352.778V267.38L352.558 266.84C352.891 266.08 353.424 265.487 354.158 265.06C354.891 264.62 355.764 264.4 356.778 264.4ZM370.293 264.4C371.146 264.4 371.893 264.567 372.533 264.9C373.186 265.22 373.693 265.713 374.053 266.38C374.426 267.047 374.613 267.887 374.613 268.9V275H373.193V269.04C373.193 267.933 372.913 267.1 372.353 266.54C371.806 265.967 371.033 265.68 370.033 265.68C369.286 265.68 368.633 265.833 368.073 266.14C367.526 266.433 367.1 266.867 366.793 267.44C366.5 268 366.353 268.68 366.353 269.48V275H364.933V260.16H366.353V267.38L366.073 266.84C366.406 266.08 366.94 265.487 367.673 265.06C368.406 264.62 369.28 264.4 370.293 264.4ZM385.029 275V272.68L384.969 272.3V268.42C384.969 267.527 384.715 266.84 384.209 266.36C383.715 265.88 382.975 265.64 381.989 265.64C381.309 265.64 380.662 265.753 380.049 265.98C379.435 266.207 378.915 266.507 378.489 266.88L377.849 265.82C378.382 265.367 379.022 265.02 379.769 264.78C380.515 264.527 381.302 264.4 382.129 264.4C383.489 264.4 384.535 264.74 385.269 265.42C386.015 266.087 386.389 267.107 386.389 268.48V275H385.029ZM381.409 275.1C380.622 275.1 379.935 274.973 379.349 274.72C378.775 274.453 378.335 274.093 378.029 273.64C377.722 273.173 377.569 272.64 377.569 272.04C377.569 271.493 377.695 271 377.949 270.56C378.215 270.107 378.642 269.747 379.229 269.48C379.829 269.2 380.629 269.06 381.629 269.06H385.249V270.12H381.669C380.655 270.12 379.949 270.3 379.549 270.66C379.162 271.02 378.969 271.467 378.969 272C378.969 272.6 379.202 273.08 379.669 273.44C380.135 273.8 380.789 273.98 381.629 273.98C382.429 273.98 383.115 273.8 383.689 273.44C384.275 273.067 384.702 272.533 384.969 271.84L385.289 272.82C385.022 273.513 384.555 274.067 383.889 274.48C383.235 274.893 382.409 275.1 381.409 275.1ZM382.209 278.8C381.982 278.8 381.782 278.72 381.609 278.56C381.435 278.4 381.349 278.193 381.349 277.94C381.349 277.687 381.435 277.48 381.609 277.32C381.782 277.16 381.982 277.08 382.209 277.08C382.449 277.08 382.649 277.16 382.809 277.32C382.982 277.48 383.069 277.687 383.069 277.94C383.069 278.193 382.982 278.4 382.809 278.56C382.649 278.72 382.449 278.8 382.209 278.8ZM378.869 262.86L381.449 260.38H382.889L385.469 262.86H384.149L381.609 260.74H382.729L380.189 262.86H378.869ZM395.606 264.4C396.459 264.4 397.206 264.567 397.846 264.9C398.499 265.22 399.006 265.713 399.366 266.38C399.739 267.047 399.926 267.887 399.926 268.9V275H398.506V269.04C398.506 267.933 398.226 267.1 397.666 266.54C397.119 265.967 396.346 265.68 395.346 265.68C394.599 265.68 393.946 265.833 393.386 266.14C392.839 266.433 392.412 266.867 392.106 267.44C391.812 268 391.666 268.68 391.666 269.48V275H390.246V264.5H391.606V267.38L391.386 266.84C391.719 266.08 392.252 265.487 392.986 265.06C393.719 264.62 394.592 264.4 395.606 264.4ZM411.816 275.1C410.949 275.1 410.129 274.98 409.356 274.74C408.582 274.487 407.976 274.173 407.536 273.8L408.176 272.68C408.602 273 409.149 273.28 409.816 273.52C410.482 273.747 411.182 273.86 411.916 273.86C412.916 273.86 413.636 273.707 414.076 273.4C414.516 273.08 414.736 272.66 414.736 272.14C414.736 271.753 414.609 271.453 414.356 271.24C414.116 271.013 413.796 270.847 413.396 270.74C412.996 270.62 412.549 270.52 412.056 270.44C411.562 270.36 411.069 270.267 410.576 270.16C410.096 270.053 409.656 269.9 409.256 269.7C408.856 269.487 408.529 269.2 408.276 268.84C408.036 268.48 407.916 268 407.916 267.4C407.916 266.827 408.076 266.313 408.396 265.86C408.716 265.407 409.182 265.053 409.796 264.8C410.422 264.533 411.182 264.4 412.076 264.4C412.756 264.4 413.436 264.493 414.116 264.68C414.796 264.853 415.356 265.087 415.796 265.38L415.176 266.52C414.709 266.2 414.209 265.973 413.676 265.84C413.142 265.693 412.609 265.62 412.076 265.62C411.129 265.62 410.429 265.787 409.976 266.12C409.536 266.44 409.316 266.853 409.316 267.36C409.316 267.76 409.436 268.073 409.676 268.3C409.929 268.527 410.256 268.707 410.656 268.84C411.069 268.96 411.516 269.06 411.996 269.14C412.489 269.22 412.976 269.32 413.456 269.44C413.949 269.547 414.396 269.7 414.796 269.9C415.209 270.087 415.536 270.36 415.776 270.72C416.029 271.067 416.156 271.527 416.156 272.1C416.156 272.713 415.982 273.247 415.636 273.7C415.302 274.14 414.809 274.487 414.156 274.74C413.516 274.98 412.736 275.1 411.816 275.1ZM423.101 275.1C422.208 275.1 421.428 274.933 420.761 274.6C420.095 274.267 419.575 273.767 419.201 273.1C418.841 272.433 418.661 271.6 418.661 270.6V264.5H420.081V270.44C420.081 271.56 420.355 272.407 420.901 272.98C421.461 273.54 422.241 273.82 423.241 273.82C423.975 273.82 424.608 273.673 425.141 273.38C425.688 273.073 426.101 272.633 426.381 272.06C426.675 271.487 426.821 270.8 426.821 270V264.5H428.241V275H426.881V272.12L427.101 272.64C426.768 273.413 426.248 274.02 425.541 274.46C424.848 274.887 424.035 275.1 423.101 275.1ZM427.261 265.58V264.5H427.561C428.028 264.5 428.361 264.367 428.561 264.1C428.775 263.833 428.881 263.513 428.881 263.14C428.881 262.887 428.841 262.653 428.761 262.44C428.695 262.227 428.601 262.033 428.481 261.86L429.421 261.5C429.581 261.727 429.708 261.987 429.801 262.28C429.895 262.56 429.941 262.86 429.941 263.18C429.941 263.887 429.741 264.467 429.341 264.92C428.941 265.36 428.348 265.58 427.561 265.58H427.261ZM423.461 278.8C423.235 278.8 423.035 278.72 422.861 278.56C422.688 278.4 422.601 278.193 422.601 277.94C422.601 277.687 422.688 277.48 422.861 277.32C423.035 277.16 423.235 277.08 423.461 277.08C423.701 277.08 423.901 277.16 424.061 277.32C424.235 277.48 424.321 277.687 424.321 277.94C424.321 278.193 424.235 278.4 424.061 278.56C423.901 278.72 423.701 278.8 423.461 278.8ZM440.87 275.1C439.884 275.1 439.124 274.833 438.59 274.3C438.057 273.767 437.79 273.013 437.79 272.04V262.18H439.21V271.96C439.21 272.573 439.364 273.047 439.67 273.38C439.99 273.713 440.444 273.88 441.03 273.88C441.657 273.88 442.177 273.7 442.59 273.34L443.09 274.36C442.81 274.613 442.47 274.8 442.07 274.92C441.684 275.04 441.284 275.1 440.87 275.1ZM435.91 265.68V264.5H442.41V265.68H435.91ZM450.015 275.1C449.122 275.1 448.342 274.933 447.675 274.6C447.009 274.267 446.489 273.767 446.115 273.1C445.755 272.433 445.575 271.6 445.575 270.6V264.5H446.995V270.44C446.995 271.56 447.269 272.407 447.815 272.98C448.375 273.54 449.155 273.82 450.155 273.82C450.889 273.82 451.522 273.673 452.055 273.38C452.602 273.073 453.015 272.633 453.295 272.06C453.589 271.487 453.735 270.8 453.735 270V264.5H455.155V275H453.795V272.12L454.015 272.64C453.682 273.413 453.162 274.02 452.455 274.46C451.762 274.887 450.949 275.1 450.015 275.1ZM454.175 265.58V264.5H454.475C454.942 264.5 455.275 264.367 455.475 264.1C455.689 263.833 455.795 263.513 455.795 263.14C455.795 262.887 455.755 262.653 455.675 262.44C455.609 262.227 455.515 262.033 455.395 261.86L456.335 261.5C456.495 261.727 456.622 261.987 456.715 262.28C456.809 262.56 456.855 262.86 456.855 263.18C456.855 263.887 456.655 264.467 456.255 264.92C455.855 265.36 455.262 265.58 454.475 265.58H454.175ZM467.164 275L462.504 264.5H463.984L468.264 274.24H467.564L471.904 264.5H473.304L468.624 275H467.164ZM481.572 275V272.68L481.512 272.3V268.42C481.512 267.527 481.258 266.84 480.752 266.36C480.258 265.88 479.518 265.64 478.532 265.64C477.852 265.64 477.205 265.753 476.592 265.98C475.978 266.207 475.458 266.507 475.032 266.88L474.392 265.82C474.925 265.367 475.565 265.02 476.312 264.78C477.058 264.527 477.845 264.4 478.672 264.4C480.032 264.4 481.078 264.74 481.812 265.42C482.558 266.087 482.932 267.107 482.932 268.48V275H481.572ZM477.952 275.1C477.165 275.1 476.478 274.973 475.892 274.72C475.318 274.453 474.878 274.093 474.572 273.64C474.265 273.173 474.112 272.64 474.112 272.04C474.112 271.493 474.238 271 474.492 270.56C474.758 270.107 475.185 269.747 475.772 269.48C476.372 269.2 477.172 269.06 478.172 269.06H481.792V270.12H478.212C477.198 270.12 476.492 270.3 476.092 270.66C475.705 271.02 475.512 271.467 475.512 272C475.512 272.6 475.745 273.08 476.212 273.44C476.678 273.8 477.332 273.98 478.172 273.98C478.972 273.98 479.658 273.8 480.232 273.44C480.818 273.067 481.245 272.533 481.512 271.84L481.832 272.82C481.565 273.513 481.098 274.067 480.432 274.48C479.778 274.893 478.952 275.1 477.952 275.1ZM475.412 262.86L478.012 260.98H479.412L482.012 262.86H480.652L478.152 261.34H479.272L476.772 262.86H475.412ZM480.532 261.2L482.952 259.04H484.672L481.792 261.2H480.532ZM492.149 264.4C493.002 264.4 493.749 264.567 494.389 264.9C495.042 265.22 495.549 265.713 495.909 266.38C496.282 267.047 496.469 267.887 496.469 268.9V275H495.049V269.04C495.049 267.933 494.769 267.1 494.209 266.54C493.662 265.967 492.889 265.68 491.889 265.68C491.142 265.68 490.489 265.833 489.929 266.14C489.382 266.433 488.955 266.867 488.649 267.44C488.355 268 488.209 268.68 488.209 269.48V275H486.789V264.5H488.149V267.38L487.929 266.84C488.262 266.08 488.795 265.487 489.529 265.06C490.262 264.62 491.135 264.4 492.149 264.4ZM509.899 275.1C508.859 275.1 507.925 274.873 507.099 274.42C506.285 273.953 505.645 273.32 505.179 272.52C504.712 271.707 504.479 270.78 504.479 269.74C504.479 268.687 504.712 267.76 505.179 266.96C505.645 266.16 506.285 265.533 507.099 265.08C507.925 264.627 508.859 264.4 509.899 264.4C510.792 264.4 511.599 264.573 512.319 264.92C513.039 265.267 513.605 265.787 514.019 266.48L512.959 267.2C512.599 266.667 512.152 266.273 511.619 266.02C511.085 265.767 510.505 265.64 509.879 265.64C509.132 265.64 508.459 265.813 507.859 266.16C507.259 266.493 506.785 266.967 506.439 267.58C506.092 268.193 505.919 268.913 505.919 269.74C505.919 270.567 506.092 271.287 506.439 271.9C506.785 272.513 507.259 272.993 507.859 273.34C508.459 273.673 509.132 273.84 509.879 273.84C510.505 273.84 511.085 273.713 511.619 273.46C512.152 273.207 512.599 272.82 512.959 272.3L514.019 273.02C513.605 273.7 513.039 274.22 512.319 274.58C511.599 274.927 510.792 275.1 509.899 275.1ZM522.012 264.4C522.865 264.4 523.612 264.567 524.252 264.9C524.905 265.22 525.412 265.713 525.772 266.38C526.145 267.047 526.332 267.887 526.332 268.9V275H524.912V269.04C524.912 267.933 524.632 267.1 524.072 266.54C523.525 265.967 522.752 265.68 521.752 265.68C521.005 265.68 520.352 265.833 519.792 266.14C519.245 266.433 518.819 266.867 518.512 267.44C518.219 268 518.072 268.68 518.072 269.48V275H516.652V260.16H518.072V267.38L517.792 266.84C518.125 266.08 518.659 265.487 519.392 265.06C520.125 264.62 520.999 264.4 522.012 264.4ZM530.168 275V264.5H531.588V275H530.168ZM530.888 262.18C530.594 262.18 530.348 262.08 530.148 261.88C529.948 261.68 529.848 261.44 529.848 261.16C529.848 260.88 529.948 260.647 530.148 260.46C530.348 260.26 530.594 260.16 530.888 260.16C531.181 260.16 531.428 260.253 531.628 260.44C531.828 260.627 531.928 260.86 531.928 261.14C531.928 261.433 531.828 261.68 531.628 261.88C531.441 262.08 531.194 262.18 530.888 262.18ZM544.093 275.1C543.106 275.1 542.346 274.833 541.813 274.3C541.28 273.767 541.013 273.013 541.013 272.04V262.18H542.433V271.96C542.433 272.573 542.586 273.047 542.893 273.38C543.213 273.713 543.666 273.88 544.253 273.88C544.88 273.88 545.4 273.7 545.813 273.34L546.313 274.36C546.033 274.613 545.693 274.8 545.293 274.92C544.906 275.04 544.506 275.1 544.093 275.1ZM539.133 265.68V264.5H545.633V265.68H539.133ZM548.898 275V264.5H550.318V275H548.898ZM549.618 262.18C549.325 262.18 549.078 262.08 548.878 261.88C548.678 261.68 548.578 261.44 548.578 261.16C548.578 260.88 548.678 260.647 548.878 260.46C549.078 260.26 549.325 260.16 549.618 260.16C549.911 260.16 550.158 260.253 550.358 260.44C550.558 260.627 550.658 260.86 550.658 261.14C550.658 261.433 550.558 261.68 550.358 261.88C550.171 262.08 549.925 262.18 549.618 262.18ZM558.729 275.1C557.636 275.1 556.676 274.873 555.849 274.42C555.022 273.953 554.376 273.32 553.909 272.52C553.442 271.707 553.209 270.78 553.209 269.74C553.209 268.7 553.429 267.78 553.869 266.98C554.322 266.18 554.936 265.553 555.709 265.1C556.496 264.633 557.376 264.4 558.349 264.4C559.336 264.4 560.209 264.627 560.969 265.08C561.742 265.52 562.349 266.147 562.789 266.96C563.229 267.76 563.449 268.687 563.449 269.74C563.449 269.807 563.442 269.88 563.429 269.96C563.429 270.027 563.429 270.1 563.429 270.18H554.289V269.12H562.669L562.109 269.54C562.109 268.78 561.942 268.107 561.609 267.52C561.289 266.92 560.849 266.453 560.289 266.12C559.729 265.787 559.082 265.62 558.349 265.62C557.629 265.62 556.982 265.787 556.409 266.12C555.836 266.453 555.389 266.92 555.069 267.52C554.749 268.12 554.589 268.807 554.589 269.58V269.8C554.589 270.6 554.762 271.307 555.109 271.92C555.469 272.52 555.962 272.993 556.589 273.34C557.229 273.673 557.956 273.84 558.769 273.84C559.409 273.84 560.002 273.727 560.549 273.5C561.109 273.273 561.589 272.927 561.989 272.46L562.789 273.38C562.322 273.94 561.736 274.367 561.029 274.66C560.336 274.953 559.569 275.1 558.729 275.1ZM555.029 262.86L557.629 260.98H559.029L561.629 262.86H560.269L557.769 261.34H558.889L556.389 262.86H555.029ZM560.149 261.2L562.569 259.04H564.289L561.409 261.2H560.149ZM569.659 275.1C568.673 275.1 567.913 274.833 567.379 274.3C566.846 273.767 566.579 273.013 566.579 272.04V262.18H567.999V271.96C567.999 272.573 568.153 273.047 568.459 273.38C568.779 273.713 569.233 273.88 569.819 273.88C570.446 273.88 570.966 273.7 571.379 273.34L571.879 274.36C571.599 274.613 571.259 274.8 570.859 274.92C570.473 275.04 570.073 275.1 569.659 275.1ZM564.699 265.68V264.5H571.199V265.68H564.699ZM573.8 277.92L574.68 274.22L574.84 275.08C574.533 275.08 574.273 274.98 574.06 274.78C573.86 274.58 573.76 274.32 573.76 274C573.76 273.68 573.86 273.42 574.06 273.22C574.273 273.02 574.526 272.92 574.82 272.92C575.126 272.92 575.373 273.027 575.56 273.24C575.76 273.453 575.86 273.707 575.86 274C575.86 274.107 575.853 274.213 575.84 274.32C575.826 274.427 575.8 274.547 575.76 274.68C575.72 274.813 575.666 274.973 575.6 275.16L574.76 277.92H573.8ZM587.452 275.1C586.466 275.1 585.706 274.833 585.172 274.3C584.639 273.767 584.372 273.013 584.372 272.04V262.18H585.792V271.96C585.792 272.573 585.946 273.047 586.252 273.38C586.572 273.713 587.026 273.88 587.612 273.88C588.239 273.88 588.759 273.7 589.172 273.34L589.672 274.36C589.392 274.613 589.052 274.8 588.652 274.92C588.266 275.04 587.866 275.1 587.452 275.1ZM582.492 265.68V264.5H588.992V265.68H582.492ZM598.837 275V272.68L598.777 272.3V268.42C598.777 267.527 598.524 266.84 598.017 266.36C597.524 265.88 596.784 265.64 595.797 265.64C595.117 265.64 594.471 265.753 593.857 265.98C593.244 266.207 592.724 266.507 592.297 266.88L591.657 265.82C592.191 265.367 592.831 265.02 593.577 264.78C594.324 264.527 595.111 264.4 595.937 264.4C597.297 264.4 598.344 264.74 599.077 265.42C599.824 266.087 600.197 267.107 600.197 268.48V275H598.837ZM595.217 275.1C594.431 275.1 593.744 274.973 593.157 274.72C592.584 274.453 592.144 274.093 591.837 273.64C591.531 273.173 591.377 272.64 591.377 272.04C591.377 271.493 591.504 271 591.757 270.56C592.024 270.107 592.451 269.747 593.037 269.48C593.637 269.2 594.437 269.06 595.437 269.06H599.057V270.12H595.477C594.464 270.12 593.757 270.3 593.357 270.66C592.971 271.02 592.777 271.467 592.777 272C592.777 272.6 593.011 273.08 593.477 273.44C593.944 273.8 594.597 273.98 595.437 273.98C596.237 273.98 596.924 273.8 597.497 273.44C598.084 273.067 598.511 272.533 598.777 271.84L599.097 272.82C598.831 273.513 598.364 274.067 597.697 274.48C597.044 274.893 596.217 275.1 595.217 275.1ZM596.017 278.8C595.791 278.8 595.591 278.72 595.417 278.56C595.244 278.4 595.157 278.193 595.157 277.94C595.157 277.687 595.244 277.48 595.417 277.32C595.591 277.16 595.791 277.08 596.017 277.08C596.257 277.08 596.457 277.16 596.617 277.32C596.791 277.48 596.877 277.687 596.877 277.94C596.877 278.193 596.791 278.4 596.617 278.56C596.457 278.72 596.257 278.8 596.017 278.8ZM592.677 262.86L595.257 260.38H596.697L599.277 262.86H597.957L595.417 260.74H596.537L593.997 262.86H592.677ZM609.414 264.4C610.268 264.4 611.014 264.567 611.654 264.9C612.308 265.22 612.814 265.713 613.174 266.38C613.548 267.047 613.734 267.887 613.734 268.9V275H612.314V269.04C612.314 267.933 612.034 267.1 611.474 266.54C610.928 265.967 610.154 265.68 609.154 265.68C608.408 265.68 607.754 265.833 607.194 266.14C606.648 266.433 606.221 266.867 605.914 267.44C605.621 268 605.474 268.68 605.474 269.48V275H604.054V264.5H605.414V267.38L605.194 266.84C605.528 266.08 606.061 265.487 606.794 265.06C607.528 264.62 608.401 264.4 609.414 264.4ZM626.124 275.1C625.138 275.1 624.378 274.833 623.844 274.3C623.311 273.767 623.044 273.013 623.044 272.04V262.18H624.464V271.96C624.464 272.573 624.618 273.047 624.924 273.38C625.244 273.713 625.698 273.88 626.284 273.88C626.911 273.88 627.431 273.7 627.844 273.34L628.344 274.36C628.064 274.613 627.724 274.8 627.324 274.92C626.938 275.04 626.538 275.1 626.124 275.1ZM621.164 265.68V264.5H627.664V265.68H621.164ZM630.929 275V264.5H632.349V275H630.929ZM631.549 262.86L628.309 260.38H630.209L632.949 262.86H631.549ZM641.66 264.4C642.514 264.4 643.26 264.567 643.9 264.9C644.554 265.22 645.06 265.713 645.42 266.38C645.794 267.047 645.98 267.887 645.98 268.9V275H644.56V269.04C644.56 267.933 644.28 267.1 643.72 266.54C643.174 265.967 642.4 265.68 641.4 265.68C640.654 265.68 640 265.833 639.44 266.14C638.894 266.433 638.467 266.867 638.16 267.44C637.867 268 637.72 268.68 637.72 269.48V275H636.3V264.5H637.66V267.38L637.44 266.84C637.774 266.08 638.307 265.487 639.04 265.06C639.774 264.62 640.647 264.4 641.66 264.4ZM655.176 264.4C656.029 264.4 656.776 264.567 657.416 264.9C658.069 265.22 658.576 265.713 658.936 266.38C659.309 267.047 659.496 267.887 659.496 268.9V275H658.076V269.04C658.076 267.933 657.796 267.1 657.236 266.54C656.689 265.967 655.916 265.68 654.916 265.68C654.169 265.68 653.516 265.833 652.956 266.14C652.409 266.433 651.983 266.867 651.676 267.44C651.383 268 651.236 268.68 651.236 269.48V275H649.816V260.16H651.236V267.38L650.956 266.84C651.289 266.08 651.823 265.487 652.556 265.06C653.289 264.62 654.163 264.4 655.176 264.4ZM671.886 275.1C670.899 275.1 670.139 274.833 669.606 274.3C669.073 273.767 668.806 273.013 668.806 272.04V262.18H670.226V271.96C670.226 272.573 670.379 273.047 670.686 273.38C671.006 273.713 671.459 273.88 672.046 273.88C672.673 273.88 673.193 273.7 673.606 273.34L674.106 274.36C673.826 274.613 673.486 274.8 673.086 274.92C672.699 275.04 672.299 275.1 671.886 275.1ZM666.926 265.68V264.5H673.426V265.68H666.926ZM681.031 275.1C680.138 275.1 679.358 274.933 678.691 274.6C678.024 274.267 677.504 273.767 677.131 273.1C676.771 272.433 676.591 271.6 676.591 270.6V264.5H678.011V270.44C678.011 271.56 678.284 272.407 678.831 272.98C679.391 273.54 680.171 273.82 681.171 273.82C681.904 273.82 682.538 273.673 683.071 273.38C683.618 273.073 684.031 272.633 684.311 272.06C684.604 271.487 684.751 270.8 684.751 270V264.5H686.171V275H684.811V272.12L685.031 272.64C684.698 273.413 684.178 274.02 683.471 274.46C682.778 274.887 681.964 275.1 681.031 275.1ZM685.191 265.58V264.5H685.491C685.958 264.5 686.291 264.367 686.491 264.1C686.704 263.833 686.811 263.513 686.811 263.14C686.811 262.887 686.771 262.653 686.691 262.44C686.624 262.227 686.531 262.033 686.411 261.86L687.351 261.5C687.511 261.727 687.638 261.987 687.731 262.28C687.824 262.56 687.871 262.86 687.871 263.18C687.871 263.887 687.671 264.467 687.271 264.92C686.871 265.36 686.278 265.58 685.491 265.58H685.191ZM681.291 262.86L678.051 260.38H679.951L682.691 262.86H681.291ZM699.84 275.1C698.8 275.1 697.867 274.873 697.04 274.42C696.227 273.953 695.587 273.32 695.12 272.52C694.653 271.707 694.42 270.78 694.42 269.74C694.42 268.687 694.653 267.76 695.12 266.96C695.587 266.16 696.227 265.533 697.04 265.08C697.867 264.627 698.8 264.4 699.84 264.4C700.733 264.4 701.54 264.573 702.26 264.92C702.98 265.267 703.547 265.787 703.96 266.48L702.9 267.2C702.54 266.667 702.093 266.273 701.56 266.02C701.027 265.767 700.447 265.64 699.82 265.64C699.073 265.64 698.4 265.813 697.8 266.16C697.2 266.493 696.727 266.967 696.38 267.58C696.033 268.193 695.86 268.913 695.86 269.74C695.86 270.567 696.033 271.287 696.38 271.9C696.727 272.513 697.2 272.993 697.8 273.34C698.4 273.673 699.073 273.84 699.82 273.84C700.447 273.84 701.027 273.713 701.56 273.46C702.093 273.207 702.54 272.82 702.9 272.3L703.96 273.02C703.547 273.7 702.98 274.22 702.26 274.58C701.54 274.927 700.733 275.1 699.84 275.1ZM711.953 264.4C712.807 264.4 713.553 264.567 714.193 264.9C714.847 265.22 715.353 265.713 715.713 266.38C716.087 267.047 716.273 267.887 716.273 268.9V275H714.853V269.04C714.853 267.933 714.573 267.1 714.013 266.54C713.467 265.967 712.693 265.68 711.693 265.68C710.947 265.68 710.293 265.833 709.733 266.14C709.187 266.433 708.76 266.867 708.453 267.44C708.16 268 708.013 268.68 708.013 269.48V275H706.593V260.16H708.013V267.38L707.733 266.84C708.067 266.08 708.6 265.487 709.333 265.06C710.067 264.62 710.94 264.4 711.953 264.4ZM724.449 275.1C723.556 275.1 722.776 274.933 722.109 274.6C721.442 274.267 720.922 273.767 720.549 273.1C720.189 272.433 720.009 271.6 720.009 270.6V264.5H721.429V270.44C721.429 271.56 721.702 272.407 722.249 272.98C722.809 273.54 723.589 273.82 724.589 273.82C725.322 273.82 725.956 273.673 726.489 273.38C727.036 273.073 727.449 272.633 727.729 272.06C728.022 271.487 728.169 270.8 728.169 270V264.5H729.589V275H728.229V272.12L728.449 272.64C728.116 273.413 727.596 274.02 726.889 274.46C726.196 274.887 725.382 275.1 724.449 275.1ZM723.509 262.86L726.249 260.38H728.149L724.909 262.86H723.509ZM738.906 264.4C739.76 264.4 740.506 264.567 741.146 264.9C741.8 265.22 742.306 265.713 742.666 266.38C743.04 267.047 743.226 267.887 743.226 268.9V275H741.806V269.04C741.806 267.933 741.526 267.1 740.966 266.54C740.42 265.967 739.646 265.68 738.646 265.68C737.9 265.68 737.246 265.833 736.686 266.14C736.14 266.433 735.713 266.867 735.406 267.44C735.113 268 734.966 268.68 734.966 269.48V275H733.546V264.5H734.906V267.38L734.686 266.84C735.02 266.08 735.553 265.487 736.286 265.06C737.02 264.62 737.893 264.4 738.906 264.4ZM751.542 278.98C750.582 278.98 749.662 278.84 748.782 278.56C747.902 278.28 747.189 277.88 746.642 277.36L747.362 276.28C747.855 276.72 748.462 277.067 749.182 277.32C749.915 277.587 750.689 277.72 751.502 277.72C752.835 277.72 753.815 277.407 754.442 276.78C755.069 276.167 755.382 275.207 755.382 273.9V271.28L755.582 269.48L755.442 267.68V264.5H756.802V273.72C756.802 275.533 756.355 276.86 755.462 277.7C754.582 278.553 753.275 278.98 751.542 278.98ZM751.282 274.6C750.282 274.6 749.382 274.387 748.582 273.96C747.782 273.52 747.149 272.913 746.682 272.14C746.229 271.367 746.002 270.48 746.002 269.48C746.002 268.48 746.229 267.6 746.682 266.84C747.149 266.067 747.782 265.467 748.582 265.04C749.382 264.613 750.282 264.4 751.282 264.4C752.215 264.4 753.055 264.593 753.802 264.98C754.549 265.367 755.142 265.94 755.582 266.7C756.022 267.46 756.242 268.387 756.242 269.48C756.242 270.573 756.022 271.5 755.582 272.26C755.142 273.02 754.549 273.6 753.802 274C753.055 274.4 752.215 274.6 751.282 274.6ZM751.422 273.34C752.195 273.34 752.882 273.18 753.482 272.86C754.082 272.527 754.555 272.073 754.902 271.5C755.249 270.913 755.422 270.24 755.422 269.48C755.422 268.72 755.249 268.053 754.902 267.48C754.555 266.907 754.082 266.46 753.482 266.14C752.882 265.807 752.195 265.64 751.422 265.64C750.662 265.64 749.975 265.807 749.362 266.14C748.762 266.46 748.289 266.907 747.942 267.48C747.609 268.053 747.442 268.72 747.442 269.48C747.442 270.24 747.609 270.913 747.942 271.5C748.289 272.073 748.762 272.527 749.362 272.86C749.975 273.18 750.662 273.34 751.422 273.34ZM769.308 275.1C768.321 275.1 767.561 274.833 767.028 274.3C766.494 273.767 766.228 273.013 766.228 272.04V262.18H767.648V271.96C767.648 272.573 767.801 273.047 768.108 273.38C768.428 273.713 768.881 273.88 769.468 273.88C770.094 273.88 770.614 273.7 771.028 273.34L771.528 274.36C771.248 274.613 770.908 274.8 770.508 274.92C770.121 275.04 769.721 275.1 769.308 275.1ZM764.348 265.68V264.5H770.848V265.68H764.348ZM778.022 275.1C777.008 275.1 776.095 274.873 775.282 274.42C774.482 273.953 773.848 273.32 773.382 272.52C772.915 271.707 772.682 270.78 772.682 269.74C772.682 268.687 772.915 267.76 773.382 266.96C773.848 266.16 774.482 265.533 775.282 265.08C776.082 264.627 776.995 264.4 778.022 264.4C779.062 264.4 779.982 264.627 780.782 265.08C781.595 265.533 782.228 266.16 782.682 266.96C783.148 267.76 783.382 268.687 783.382 269.74C783.382 270.78 783.148 271.707 782.682 272.52C782.228 273.32 781.595 273.953 780.782 274.42C779.968 274.873 779.048 275.1 778.022 275.1ZM778.022 273.84C778.782 273.84 779.455 273.673 780.042 273.34C780.628 272.993 781.088 272.513 781.422 271.9C781.768 271.273 781.942 270.553 781.942 269.74C781.942 268.913 781.768 268.193 781.422 267.58C781.088 266.967 780.628 266.493 780.042 266.16C779.455 265.813 778.788 265.64 778.042 265.64C777.295 265.64 776.628 265.813 776.042 266.16C775.455 266.493 774.988 266.967 774.642 267.58C774.295 268.193 774.122 268.913 774.122 269.74C774.122 270.553 774.295 271.273 774.642 271.9C774.988 272.513 775.455 272.993 776.042 273.34C776.628 273.673 777.288 273.84 778.022 273.84ZM774.722 262.86L777.302 260.38H778.742L781.322 262.86H780.002L777.462 260.74H778.582L776.042 262.86H774.722ZM786.281 275V264.5H787.701V275H786.281ZM787.001 262.18C786.707 262.18 786.461 262.08 786.261 261.88C786.061 261.68 785.961 261.44 785.961 261.16C785.961 260.88 786.061 260.647 786.261 260.46C786.461 260.26 786.707 260.16 787.001 260.16C787.294 260.16 787.541 260.253 787.741 260.44C787.941 260.627 788.041 260.86 788.041 261.14C788.041 261.433 787.941 261.68 787.741 261.88C787.554 262.08 787.307 262.18 787.001 262.18ZM801.066 275.1C800.066 275.1 799.166 274.873 798.366 274.42C797.58 273.967 796.96 273.34 796.506 272.54C796.053 271.727 795.826 270.793 795.826 269.74C795.826 268.673 796.053 267.74 796.506 266.94C796.96 266.14 797.58 265.52 798.366 265.08C799.166 264.627 800.066 264.4 801.066 264.4C801.986 264.4 802.806 264.607 803.526 265.02C804.26 265.433 804.84 266.04 805.266 266.84C805.706 267.627 805.926 268.593 805.926 269.74C805.926 270.873 805.713 271.84 805.286 272.64C804.86 273.44 804.28 274.053 803.546 274.48C802.826 274.893 802 275.1 801.066 275.1ZM801.166 273.84C801.913 273.84 802.58 273.673 803.166 273.34C803.766 272.993 804.233 272.513 804.566 271.9C804.913 271.273 805.086 270.553 805.086 269.74C805.086 268.913 804.913 268.193 804.566 267.58C804.233 266.967 803.766 266.493 803.166 266.16C802.58 265.813 801.913 265.64 801.166 265.64C800.433 265.64 799.773 265.813 799.186 266.16C798.6 266.493 798.133 266.967 797.786 267.58C797.44 268.193 797.266 268.913 797.266 269.74C797.266 270.553 797.44 271.273 797.786 271.9C798.133 272.513 798.6 272.993 799.186 273.34C799.773 273.673 800.433 273.84 801.166 273.84ZM805.126 275V271.84L805.266 269.72L805.066 267.6V260.16H806.486V275H805.126ZM800.666 262.86V261.82H808.466V262.86H800.666ZM814.901 275.1C813.808 275.1 812.848 274.873 812.021 274.42C811.194 273.953 810.548 273.32 810.081 272.52C809.614 271.707 809.381 270.78 809.381 269.74C809.381 268.7 809.601 267.78 810.041 266.98C810.494 266.18 811.108 265.553 811.881 265.1C812.668 264.633 813.548 264.4 814.521 264.4C815.508 264.4 816.381 264.627 817.141 265.08C817.914 265.52 818.521 266.147 818.961 266.96C819.401 267.76 819.621 268.687 819.621 269.74C819.621 269.807 819.614 269.88 819.601 269.96C819.601 270.027 819.601 270.1 819.601 270.18H810.461V269.12H818.841L818.281 269.54C818.281 268.78 818.114 268.107 817.781 267.52C817.461 266.92 817.021 266.453 816.461 266.12C815.901 265.787 815.254 265.62 814.521 265.62C813.801 265.62 813.154 265.787 812.581 266.12C812.008 266.453 811.561 266.92 811.241 267.52C810.921 268.12 810.761 268.807 810.761 269.58V269.8C810.761 270.6 810.934 271.307 811.281 271.92C811.641 272.52 812.134 272.993 812.761 273.34C813.401 273.673 814.128 273.84 814.941 273.84C815.581 273.84 816.174 273.727 816.721 273.5C817.281 273.273 817.761 272.927 818.161 272.46L818.961 273.38C818.494 273.94 817.908 274.367 817.201 274.66C816.508 274.953 815.741 275.1 814.901 275.1ZM811.201 262.86L813.801 260.98H815.201L817.801 262.86H816.441L813.941 261.34H815.061L812.561 262.86H811.201ZM817.121 261.54L816.721 261.04C816.988 260.907 817.194 260.753 817.341 260.58C817.488 260.407 817.561 260.227 817.561 260.04C817.561 259.84 817.488 259.68 817.341 259.56C817.194 259.44 817.001 259.38 816.761 259.38C816.468 259.38 816.181 259.46 815.901 259.62L815.601 259.04C815.788 258.907 815.988 258.813 816.201 258.76C816.428 258.693 816.654 258.66 816.881 258.66C817.334 258.66 817.688 258.787 817.941 259.04C818.194 259.28 818.321 259.587 818.321 259.96C818.321 260.307 818.214 260.62 818.001 260.9C817.801 261.167 817.508 261.38 817.121 261.54ZM831.066 275.1C830.079 275.1 829.319 274.833 828.786 274.3C828.252 273.767 827.986 273.013 827.986 272.04V262.18H829.406V271.96C829.406 272.573 829.559 273.047 829.866 273.38C830.186 273.713 830.639 273.88 831.226 273.88C831.852 273.88 832.372 273.7 832.786 273.34L833.286 274.36C833.006 274.613 832.666 274.8 832.266 274.92C831.879 275.04 831.479 275.1 831.066 275.1ZM826.106 265.68V264.5H832.606V265.68H826.106ZM835.871 275V264.5H837.291V275H835.871ZM836.491 262.86L833.251 260.38H835.151L837.891 262.86H836.491ZM854.362 264.4C855.215 264.4 855.955 264.567 856.582 264.9C857.222 265.22 857.715 265.713 858.062 266.38C858.422 267.047 858.602 267.887 858.602 268.9V275H857.182V269.04C857.182 267.933 856.915 267.1 856.382 266.54C855.862 265.967 855.122 265.68 854.162 265.68C853.442 265.68 852.815 265.833 852.282 266.14C851.762 266.433 851.355 266.867 851.062 267.44C850.782 268 850.642 268.68 850.642 269.48V275H849.222V269.04C849.222 267.933 848.955 267.1 848.422 266.54C847.888 265.967 847.142 265.68 846.182 265.68C845.475 265.68 844.855 265.833 844.322 266.14C843.788 266.433 843.375 266.867 843.082 267.44C842.802 268 842.662 268.68 842.662 269.48V275H841.242V264.5H842.602V267.34L842.382 266.84C842.702 266.08 843.215 265.487 843.922 265.06C844.642 264.62 845.488 264.4 846.462 264.4C847.488 264.4 848.362 264.66 849.082 265.18C849.802 265.687 850.268 266.453 850.482 267.48L849.922 267.26C850.228 266.407 850.768 265.72 851.542 265.2C852.328 264.667 853.268 264.4 854.362 264.4ZM867.687 275V264.5H869.047V267.36L868.907 266.86C869.2 266.06 869.694 265.453 870.387 265.04C871.08 264.613 871.94 264.4 872.967 264.4V265.78C872.914 265.78 872.86 265.78 872.807 265.78C872.754 265.767 872.7 265.76 872.647 265.76C871.54 265.76 870.674 266.1 870.047 266.78C869.42 267.447 869.107 268.4 869.107 269.64V275H867.687ZM881.357 275V272.68L881.297 272.3V268.42C881.297 267.527 881.044 266.84 880.537 266.36C880.044 265.88 879.304 265.64 878.317 265.64C877.637 265.64 876.99 265.753 876.377 265.98C875.764 266.207 875.244 266.507 874.817 266.88L874.177 265.82C874.71 265.367 875.35 265.02 876.097 264.78C876.844 264.527 877.63 264.4 878.457 264.4C879.817 264.4 880.864 264.74 881.597 265.42C882.344 266.087 882.717 267.107 882.717 268.48V275H881.357ZM877.737 275.1C876.95 275.1 876.264 274.973 875.677 274.72C875.104 274.453 874.664 274.093 874.357 273.64C874.05 273.173 873.897 272.64 873.897 272.04C873.897 271.493 874.024 271 874.277 270.56C874.544 270.107 874.97 269.747 875.557 269.48C876.157 269.2 876.957 269.06 877.957 269.06H881.577V270.12H877.997C876.984 270.12 876.277 270.3 875.877 270.66C875.49 271.02 875.297 271.467 875.297 272C875.297 272.6 875.53 273.08 875.997 273.44C876.464 273.8 877.117 273.98 877.957 273.98C878.757 273.98 879.444 273.8 880.017 273.44C880.604 273.067 881.03 272.533 881.297 271.84L881.617 272.82C881.35 273.513 880.884 274.067 880.217 274.48C879.564 274.893 878.737 275.1 877.737 275.1ZM894.628 275.1C893.761 275.1 892.941 274.98 892.168 274.74C891.395 274.487 890.788 274.173 890.348 273.8L890.988 272.68C891.415 273 891.961 273.28 892.628 273.52C893.295 273.747 893.995 273.86 894.728 273.86C895.728 273.86 896.448 273.707 896.888 273.4C897.328 273.08 897.548 272.66 897.548 272.14C897.548 271.753 897.421 271.453 897.168 271.24C896.928 271.013 896.608 270.847 896.208 270.74C895.808 270.62 895.361 270.52 894.868 270.44C894.375 270.36 893.881 270.267 893.388 270.16C892.908 270.053 892.468 269.9 892.068 269.7C891.668 269.487 891.341 269.2 891.088 268.84C890.848 268.48 890.728 268 890.728 267.4C890.728 266.827 890.888 266.313 891.208 265.86C891.528 265.407 891.995 265.053 892.608 264.8C893.235 264.533 893.995 264.4 894.888 264.4C895.568 264.4 896.248 264.493 896.928 264.68C897.608 264.853 898.168 265.087 898.608 265.38L897.988 266.52C897.521 266.2 897.021 265.973 896.488 265.84C895.955 265.693 895.421 265.62 894.888 265.62C893.941 265.62 893.241 265.787 892.788 266.12C892.348 266.44 892.128 266.853 892.128 267.36C892.128 267.76 892.248 268.073 892.488 268.3C892.741 268.527 893.068 268.707 893.468 268.84C893.881 268.96 894.328 269.06 894.808 269.14C895.301 269.22 895.788 269.32 896.268 269.44C896.761 269.547 897.208 269.7 897.608 269.9C898.021 270.087 898.348 270.36 898.588 270.72C898.841 271.067 898.968 271.527 898.968 272.1C898.968 272.713 898.795 273.247 898.448 273.7C898.115 274.14 897.621 274.487 896.968 274.74C896.328 274.98 895.548 275.1 894.628 275.1ZM905.914 275.1C905.02 275.1 904.24 274.933 903.574 274.6C902.907 274.267 902.387 273.767 902.014 273.1C901.654 272.433 901.474 271.6 901.474 270.6V264.5H902.894V270.44C902.894 271.56 903.167 272.407 903.714 272.98C904.274 273.54 905.054 273.82 906.054 273.82C906.787 273.82 907.42 273.673 907.954 273.38C908.5 273.073 908.914 272.633 909.194 272.06C909.487 271.487 909.634 270.8 909.634 270V264.5H911.054V275H909.694V272.12L909.914 272.64C909.58 273.413 909.06 274.02 908.354 274.46C907.66 274.887 906.847 275.1 905.914 275.1ZM910.074 265.58V264.5H910.374C910.84 264.5 911.174 264.367 911.374 264.1C911.587 263.833 911.694 263.513 911.694 263.14C911.694 262.887 911.654 262.653 911.574 262.44C911.507 262.227 911.414 262.033 911.294 261.86L912.234 261.5C912.394 261.727 912.52 261.987 912.614 262.28C912.707 262.56 912.754 262.86 912.754 263.18C912.754 263.887 912.554 264.467 912.154 264.92C911.754 265.36 911.16 265.58 910.374 265.58H910.074ZM906.274 278.8C906.047 278.8 905.847 278.72 905.674 278.56C905.5 278.4 905.414 278.193 905.414 277.94C905.414 277.687 905.5 277.48 905.674 277.32C905.847 277.16 906.047 277.08 906.274 277.08C906.514 277.08 906.714 277.16 906.874 277.32C907.047 277.48 907.134 277.687 907.134 277.94C907.134 278.193 907.047 278.4 906.874 278.56C906.714 278.72 906.514 278.8 906.274 278.8ZM920.363 275V260.16H921.783V275H920.363ZM930.074 275.1C929.181 275.1 928.401 274.933 927.734 274.6C927.067 274.267 926.547 273.767 926.174 273.1C925.814 272.433 925.634 271.6 925.634 270.6V264.5H927.054V270.44C927.054 271.56 927.327 272.407 927.874 272.98C928.434 273.54 929.214 273.82 930.214 273.82C930.947 273.82 931.581 273.673 932.114 273.38C932.661 273.073 933.074 272.633 933.354 272.06C933.647 271.487 933.794 270.8 933.794 270V264.5H935.214V275H933.854V272.12L934.074 272.64C933.741 273.413 933.221 274.02 932.514 274.46C931.821 274.887 931.007 275.1 930.074 275.1ZM934.234 265.58V264.5H934.534C935.001 264.5 935.334 264.367 935.534 264.1C935.747 263.833 935.854 263.513 935.854 263.14C935.854 262.887 935.814 262.653 935.734 262.44C935.667 262.227 935.574 262.033 935.454 261.86L936.394 261.5C936.554 261.727 936.681 261.987 936.774 262.28C936.867 262.56 936.914 262.86 936.914 263.18C936.914 263.887 936.714 264.467 936.314 264.92C935.914 265.36 935.321 265.58 934.534 265.58H934.234ZM930.434 278.8C930.207 278.8 930.007 278.72 929.834 278.56C929.661 278.4 929.574 278.193 929.574 277.94C929.574 277.687 929.661 277.48 929.834 277.32C930.007 277.16 930.207 277.08 930.434 277.08C930.674 277.08 930.874 277.16 931.034 277.32C931.207 277.48 931.294 277.687 931.294 277.94C931.294 278.193 931.207 278.4 931.034 278.56C930.874 278.72 930.674 278.8 930.434 278.8ZM945.556 275V272.68L945.496 272.3V268.42C945.496 267.527 945.243 266.84 944.736 266.36C944.243 265.88 943.503 265.64 942.516 265.64C941.836 265.64 941.189 265.753 940.576 265.98C939.963 266.207 939.443 266.507 939.016 266.88L938.376 265.82C938.909 265.367 939.549 265.02 940.296 264.78C941.043 264.527 941.829 264.4 942.656 264.4C944.016 264.4 945.063 264.74 945.796 265.42C946.543 266.087 946.916 267.107 946.916 268.48V275H945.556ZM941.936 275.1C941.149 275.1 940.463 274.973 939.876 274.72C939.303 274.453 938.863 274.093 938.556 273.64C938.249 273.173 938.096 272.64 938.096 272.04C938.096 271.493 938.223 271 938.476 270.56C938.743 270.107 939.169 269.747 939.756 269.48C940.356 269.2 941.156 269.06 942.156 269.06H945.776V270.12H942.196C941.183 270.12 940.476 270.3 940.076 270.66C939.689 271.02 939.496 271.467 939.496 272C939.496 272.6 939.729 273.08 940.196 273.44C940.663 273.8 941.316 273.98 942.156 273.98C942.956 273.98 943.643 273.8 944.216 273.44C944.803 273.067 945.229 272.533 945.496 271.84L945.816 272.82C945.549 273.513 945.083 274.067 944.416 274.48C943.763 274.893 942.936 275.1 941.936 275.1ZM960.367 275.1C959.327 275.1 958.394 274.873 957.567 274.42C956.754 273.953 956.114 273.32 955.647 272.52C955.181 271.707 954.947 270.78 954.947 269.74C954.947 268.687 955.181 267.76 955.647 266.96C956.114 266.16 956.754 265.533 957.567 265.08C958.394 264.627 959.327 264.4 960.367 264.4C961.261 264.4 962.067 264.573 962.787 264.92C963.507 265.267 964.074 265.787 964.487 266.48L963.427 267.2C963.067 266.667 962.621 266.273 962.087 266.02C961.554 265.767 960.974 265.64 960.347 265.64C959.601 265.64 958.927 265.813 958.327 266.16C957.727 266.493 957.254 266.967 956.907 267.58C956.561 268.193 956.387 268.913 956.387 269.74C956.387 270.567 956.561 271.287 956.907 271.9C957.254 272.513 957.727 272.993 958.327 273.34C958.927 273.673 959.601 273.84 960.347 273.84C960.974 273.84 961.554 273.713 962.087 273.46C962.621 273.207 963.067 272.82 963.427 272.3L964.487 273.02C964.074 273.7 963.507 274.22 962.787 274.58C962.067 274.927 961.261 275.1 960.367 275.1ZM972.481 264.4C973.334 264.4 974.081 264.567 974.721 264.9C975.374 265.22 975.881 265.713 976.241 266.38C976.614 267.047 976.801 267.887 976.801 268.9V275H975.381V269.04C975.381 267.933 975.101 267.1 974.541 266.54C973.994 265.967 973.221 265.68 972.221 265.68C971.474 265.68 970.821 265.833 970.261 266.14C969.714 266.433 969.287 266.867 968.981 267.44C968.687 268 968.541 268.68 968.541 269.48V275H967.121V260.16H968.541V267.38L968.261 266.84C968.594 266.08 969.127 265.487 969.861 265.06C970.594 264.62 971.467 264.4 972.481 264.4ZM984.916 275.1C983.903 275.1 982.99 274.873 982.176 274.42C981.376 273.953 980.743 273.32 980.276 272.52C979.81 271.707 979.576 270.78 979.576 269.74C979.576 268.687 979.81 267.76 980.276 266.96C980.743 266.16 981.376 265.533 982.176 265.08C982.976 264.627 983.89 264.4 984.916 264.4C985.956 264.4 986.876 264.627 987.676 265.08C988.49 265.533 989.123 266.16 989.576 266.96C990.043 267.76 990.276 268.687 990.276 269.74C990.276 270.78 990.043 271.707 989.576 272.52C989.123 273.32 988.49 273.953 987.676 274.42C986.863 274.873 985.943 275.1 984.916 275.1ZM984.916 273.84C985.676 273.84 986.35 273.673 986.936 273.34C987.523 272.993 987.983 272.513 988.316 271.9C988.663 271.273 988.836 270.553 988.836 269.74C988.836 268.913 988.663 268.193 988.316 267.58C987.983 266.967 987.523 266.493 986.936 266.16C986.35 265.813 985.683 265.64 984.936 265.64C984.19 265.64 983.523 265.813 982.936 266.16C982.35 266.493 981.883 266.967 981.536 267.58C981.19 268.193 981.016 268.913 981.016 269.74C981.016 270.553 981.19 271.273 981.536 271.9C981.883 272.513 982.35 272.993 982.936 273.34C983.523 273.673 984.183 273.84 984.916 273.84ZM984.916 278.8C984.69 278.8 984.49 278.72 984.316 278.56C984.143 278.4 984.056 278.193 984.056 277.94C984.056 277.687 984.143 277.48 984.316 277.32C984.49 277.16 984.69 277.08 984.916 277.08C985.156 277.08 985.356 277.16 985.516 277.32C985.69 277.48 985.776 277.687 985.776 277.94C985.776 278.193 985.69 278.4 985.516 278.56C985.356 278.72 985.156 278.8 984.916 278.8ZM998.535 264.4C999.389 264.4 1000.14 264.567 1000.78 264.9C1001.43 265.22 1001.94 265.713 1002.3 266.38C1002.67 267.047 1002.86 267.887 1002.86 268.9V275H1001.44V269.04C1001.44 267.933 1001.16 267.1 1000.6 266.54C1000.05 265.967 999.275 265.68 998.275 265.68C997.529 265.68 996.875 265.833 996.315 266.14C995.769 266.433 995.342 266.867 995.035 267.44C994.742 268 994.595 268.68 994.595 269.48V275H993.175V264.5H994.535V267.38L994.315 266.84C994.649 266.08 995.182 265.487 995.915 265.06C996.649 264.62 997.522 264.4 998.535 264.4ZM1016.29 275.1C1015.25 275.1 1014.31 274.873 1013.49 274.42C1012.67 273.953 1012.03 273.32 1011.57 272.52C1011.1 271.707 1010.87 270.78 1010.87 269.74C1010.87 268.687 1011.1 267.76 1011.57 266.96C1012.03 266.16 1012.67 265.533 1013.49 265.08C1014.31 264.627 1015.25 264.4 1016.29 264.4C1017.18 264.4 1017.99 264.573 1018.71 264.92C1019.43 265.267 1019.99 265.787 1020.41 266.48L1019.35 267.2C1018.99 266.667 1018.54 266.273 1018.01 266.02C1017.47 265.767 1016.89 265.64 1016.27 265.64C1015.52 265.64 1014.85 265.813 1014.25 266.16C1013.65 266.493 1013.17 266.967 1012.83 267.58C1012.48 268.193 1012.31 268.913 1012.31 269.74C1012.31 270.567 1012.48 271.287 1012.83 271.9C1013.17 272.513 1013.65 272.993 1014.25 273.34C1014.85 273.673 1015.52 273.84 1016.27 273.84C1016.89 273.84 1017.47 273.713 1018.01 273.46C1018.54 273.207 1018.99 272.82 1019.35 272.3L1020.41 273.02C1019.99 273.7 1019.43 274.22 1018.71 274.58C1017.99 274.927 1017.18 275.1 1016.29 275.1ZM1028.4 264.4C1029.25 264.4 1030 264.567 1030.64 264.9C1031.29 265.22 1031.8 265.713 1032.16 266.38C1032.53 267.047 1032.72 267.887 1032.72 268.9V275H1031.3V269.04C1031.3 267.933 1031.02 267.1 1030.46 266.54C1029.91 265.967 1029.14 265.68 1028.14 265.68C1027.39 265.68 1026.74 265.833 1026.18 266.14C1025.63 266.433 1025.21 266.867 1024.9 267.44C1024.61 268 1024.46 268.68 1024.46 269.48V275H1023.04V260.16H1024.46V267.38L1024.18 266.84C1024.51 266.08 1025.05 265.487 1025.78 265.06C1026.51 264.62 1027.39 264.4 1028.4 264.4ZM1040.83 275.1C1039.82 275.1 1038.91 274.873 1038.09 274.42C1037.29 273.953 1036.66 273.32 1036.19 272.52C1035.73 271.707 1035.49 270.78 1035.49 269.74C1035.49 268.687 1035.73 267.76 1036.19 266.96C1036.66 266.16 1037.29 265.533 1038.09 265.08C1038.89 264.627 1039.81 264.4 1040.83 264.4C1041.87 264.4 1042.79 264.627 1043.59 265.08C1044.41 265.533 1045.04 266.16 1045.49 266.96C1045.96 267.76 1046.19 268.687 1046.19 269.74C1046.19 270.78 1045.96 271.707 1045.49 272.52C1045.04 273.32 1044.41 273.953 1043.59 274.42C1042.78 274.873 1041.86 275.1 1040.83 275.1ZM1040.83 273.84C1041.59 273.84 1042.27 273.673 1042.85 273.34C1043.44 272.993 1043.9 272.513 1044.23 271.9C1044.58 271.273 1044.75 270.553 1044.75 269.74C1044.75 268.913 1044.58 268.193 1044.23 267.58C1043.9 266.967 1043.44 266.493 1042.85 266.16C1042.27 265.813 1041.6 265.64 1040.85 265.64C1040.11 265.64 1039.44 265.813 1038.85 266.16C1038.27 266.493 1037.8 266.967 1037.45 267.58C1037.11 268.193 1036.93 268.913 1036.93 269.74C1036.93 270.553 1037.11 271.273 1037.45 271.9C1037.8 272.513 1038.27 272.993 1038.85 273.34C1039.44 273.673 1040.1 273.84 1040.83 273.84ZM1059.75 275.1C1058.83 275.1 1058 274.893 1057.27 274.48C1056.53 274.053 1055.95 273.44 1055.53 272.64C1055.1 271.84 1054.89 270.873 1054.89 269.74C1054.89 268.593 1055.1 267.627 1055.53 266.84C1055.97 266.04 1056.55 265.433 1057.29 265.02C1058.02 264.607 1058.84 264.4 1059.75 264.4C1060.75 264.4 1061.64 264.627 1062.43 265.08C1063.23 265.52 1063.85 266.14 1064.31 266.94C1064.76 267.74 1064.99 268.673 1064.99 269.74C1064.99 270.793 1064.76 271.727 1064.31 272.54C1063.85 273.34 1063.23 273.967 1062.43 274.42C1061.64 274.873 1060.75 275.1 1059.75 275.1ZM1054.33 275V260.16H1055.75V267.6L1055.55 269.72L1055.69 271.84V275H1054.33ZM1059.65 273.84C1060.39 273.84 1061.06 273.673 1061.65 273.34C1062.23 272.993 1062.7 272.513 1063.05 271.9C1063.39 271.273 1063.57 270.553 1063.57 269.74C1063.57 268.913 1063.39 268.193 1063.05 267.58C1062.7 266.967 1062.23 266.493 1061.65 266.16C1061.06 265.813 1060.39 265.64 1059.65 265.64C1058.9 265.64 1058.23 265.813 1057.63 266.16C1057.04 266.493 1056.57 266.967 1056.23 267.58C1055.89 268.193 1055.73 268.913 1055.73 269.74C1055.73 270.553 1055.89 271.273 1056.23 271.9C1056.57 272.513 1057.04 272.993 1057.63 273.34C1058.23 273.673 1058.9 273.84 1059.65 273.84ZM1074.4 275V272.68L1074.34 272.3V268.42C1074.34 267.527 1074.09 266.84 1073.58 266.36C1073.09 265.88 1072.35 265.64 1071.36 265.64C1070.68 265.64 1070.04 265.753 1069.42 265.98C1068.81 266.207 1068.29 266.507 1067.86 266.88L1067.22 265.82C1067.76 265.367 1068.4 265.02 1069.14 264.78C1069.89 264.527 1070.68 264.4 1071.5 264.4C1072.86 264.4 1073.91 264.74 1074.64 265.42C1075.39 266.087 1075.76 267.107 1075.76 268.48V275H1074.4ZM1070.78 275.1C1070 275.1 1069.31 274.973 1068.72 274.72C1068.15 274.453 1067.71 274.093 1067.4 273.64C1067.1 273.173 1066.94 272.64 1066.94 272.04C1066.94 271.493 1067.07 271 1067.32 270.56C1067.59 270.107 1068.02 269.747 1068.6 269.48C1069.2 269.2 1070 269.06 1071 269.06H1074.62V270.12H1071.04C1070.03 270.12 1069.32 270.3 1068.92 270.66C1068.54 271.02 1068.34 271.467 1068.34 272C1068.34 272.6 1068.58 273.08 1069.04 273.44C1069.51 273.8 1070.16 273.98 1071 273.98C1071.8 273.98 1072.49 273.8 1073.06 273.44C1073.65 273.067 1074.08 272.533 1074.34 271.84L1074.66 272.82C1074.4 273.513 1073.93 274.067 1073.26 274.48C1072.61 274.893 1071.78 275.1 1070.78 275.1ZM1071.58 278.8C1071.36 278.8 1071.16 278.72 1070.98 278.56C1070.81 278.4 1070.72 278.193 1070.72 277.94C1070.72 277.687 1070.81 277.48 1070.98 277.32C1071.16 277.16 1071.36 277.08 1071.58 277.08C1071.82 277.08 1072.02 277.16 1072.18 277.32C1072.36 277.48 1072.44 277.687 1072.44 277.94C1072.44 278.193 1072.36 278.4 1072.18 278.56C1072.02 278.72 1071.82 278.8 1071.58 278.8ZM1084.98 264.4C1085.83 264.4 1086.58 264.567 1087.22 264.9C1087.87 265.22 1088.38 265.713 1088.74 266.38C1089.11 267.047 1089.3 267.887 1089.3 268.9V275H1087.88V269.04C1087.88 267.933 1087.6 267.1 1087.04 266.54C1086.49 265.967 1085.72 265.68 1084.72 265.68C1083.97 265.68 1083.32 265.833 1082.76 266.14C1082.21 266.433 1081.79 266.867 1081.48 267.44C1081.19 268 1081.04 268.68 1081.04 269.48V275H1079.62V264.5H1080.98V267.38L1080.76 266.84C1081.09 266.08 1081.63 265.487 1082.36 265.06C1083.09 264.62 1083.97 264.4 1084.98 264.4ZM1098.43 270.8L1098.15 261H1099.83L1099.53 270.8H1098.43ZM1098.99 275.1C1098.7 275.1 1098.44 275 1098.23 274.8C1098.03 274.587 1097.93 274.34 1097.93 274.06C1097.93 273.767 1098.03 273.527 1098.23 273.34C1098.44 273.14 1098.7 273.04 1098.99 273.04C1099.3 273.04 1099.54 273.14 1099.73 273.34C1099.93 273.527 1100.03 273.767 1100.03 274.06C1100.03 274.34 1099.93 274.587 1099.73 274.8C1099.54 275 1099.3 275.1 1098.99 275.1Z" fill="black"/>
<path d="M1280 263C1280 265.761 1282.24 268 1285 268H1520C1522.76 268 1525 265.761 1525 263V208C1525 205.239 1522.76 203 1520 203H1285C1282.24 203 1280 205.239 1280 208V263Z" fill="#FCAF3D"/>
<path d="M1280.5 258C1280.5 260.485 1282.51 262.5 1285 262.5H1520C1522.49 262.5 1524.5 260.485 1524.5 258V203C1524.5 200.515 1522.49 198.5 1520 198.5H1285C1282.51 198.5 1280.5 200.515 1280.5 203V258Z" fill="white" stroke="#000E29"/>
<path d="M1329.83 237V223H1333.07V234.36H1340.09V237H1329.83ZM1341.9 237V223H1345.14V237H1341.9ZM1351.45 228.64H1358.19V231.16H1351.45V228.64ZM1351.69 234.4H1359.31V237H1348.47V223H1359.05V225.6H1351.69V234.4ZM1349.75 221.86L1352.39 218.98H1355.15L1357.79 221.86H1355.51L1352.75 219.46H1354.79L1352.03 221.86H1349.75ZM1361.88 237V223H1364.56L1372.82 233.08H1371.52V223H1374.72V237H1372.06L1363.78 226.92H1365.08V237H1361.88ZM1393.3 223H1396.54V237H1393.3V223ZM1386.94 237H1383.7V223H1386.94V237ZM1393.54 231.26H1386.7V228.52H1393.54V231.26ZM1402.83 228.64H1409.57V231.16H1402.83V228.64ZM1403.07 234.4H1410.69V237H1399.85V223H1410.43V225.6H1403.07V234.4ZM1405.25 241.2C1404.87 241.2 1404.54 241.08 1404.27 240.84C1404.01 240.6 1403.87 240.273 1403.87 239.86C1403.87 239.447 1404.01 239.107 1404.27 238.84C1404.54 238.587 1404.87 238.46 1405.25 238.46C1405.64 238.46 1405.97 238.587 1406.23 238.84C1406.5 239.107 1406.63 239.447 1406.63 239.86C1406.63 240.273 1406.5 240.6 1406.23 240.84C1405.97 241.08 1405.64 241.2 1405.25 241.2ZM1401.13 221.86L1403.77 218.98H1406.53L1409.17 221.86H1406.89L1404.13 219.46H1406.17L1403.41 221.86H1401.13ZM1418.94 237V223H1421.62L1429.88 233.08H1428.58V223H1431.78V237H1429.12L1420.84 226.92H1422.14V237H1418.94ZM1441.85 237.24C1440.74 237.24 1439.72 237.067 1438.79 236.72C1437.87 236.36 1437.06 235.853 1436.37 235.2C1435.69 234.547 1435.15 233.78 1434.77 232.9C1434.39 232.02 1434.21 231.053 1434.21 230C1434.21 228.947 1434.39 227.98 1434.77 227.1C1435.15 226.22 1435.69 225.453 1436.39 224.8C1437.08 224.147 1437.89 223.647 1438.83 223.3C1439.76 222.94 1440.79 222.76 1441.91 222.76C1443.15 222.76 1444.26 222.967 1445.25 223.38C1446.25 223.793 1447.09 224.393 1447.77 225.18L1445.69 227.1C1445.18 226.567 1444.63 226.173 1444.03 225.92C1443.43 225.653 1442.77 225.52 1442.07 225.52C1441.39 225.52 1440.77 225.627 1440.21 225.84C1439.65 226.053 1439.16 226.36 1438.75 226.76C1438.35 227.16 1438.03 227.633 1437.81 228.18C1437.59 228.727 1437.49 229.333 1437.49 230C1437.49 230.653 1437.59 231.253 1437.81 231.8C1438.03 232.347 1438.35 232.827 1438.75 233.24C1439.16 233.64 1439.64 233.947 1440.19 234.16C1440.75 234.373 1441.36 234.48 1442.03 234.48C1442.67 234.48 1443.29 234.38 1443.89 234.18C1444.5 233.967 1445.09 233.613 1445.67 233.12L1447.51 235.46C1446.75 236.033 1445.86 236.473 1444.85 236.78C1443.85 237.087 1442.85 237.24 1441.85 237.24ZM1444.55 235.04V229.78H1447.51V235.46L1444.55 235.04ZM1448.68 237L1454.92 223H1458.12L1464.38 237H1460.98L1455.86 224.64H1457.14L1452 237H1448.68ZM1451.8 234L1452.66 231.54H1459.86L1460.74 234H1451.8ZM1468.45 237V231.28L1469.19 233.24L1463.03 223H1466.47L1471.19 230.86H1469.21L1473.95 223H1477.13L1470.97 233.24L1471.69 231.28V237H1468.45Z" fill="#000E29"/>
</svg>
