<svg width="84" height="73" viewBox="0 0 84 73" fill="none" xmlns="http://www.w3.org/2000/svg">
<path d="M71.7323 23.4643C63.5595 23.4643 56.9104 17.6165 56.9104 10.4286C56.9104 9.50304 57.0245 8.60097 57.2335 7.73018C54.6175 7.47207 52.1155 6.61432 49.993 5.21429L42.0885 0L34.184 5.21429C31.6183 6.90632 28.4983 7.82143 25.2908 7.82143H12.4447C12.4447 7.82143 12.501 43.2551 12.5544 43.8209C13.128 44.0151 13.6586 44.3071 14.1077 44.7034L22.9268 52.4596C25.7266 54.9221 27.2681 58.1967 27.2681 61.6772V62.5728L42.0885 73L56.9119 62.5701V61.6772C56.9119 58.1954 58.4534 54.9208 61.2547 52.4583L70.0723 44.7034C70.5214 44.3084 71.0505 44.0164 71.6226 43.8222C71.6745 43.2564 71.7323 23.4643 71.7323 23.4643Z" fill="#3CC8B4"/>
<path d="M9.48169 67.7856H27.268V72.9999H9.48169V67.7856Z" fill="#F0F0F0"/>
<path d="M9.48169 67.7856H15.4105V72.9999H9.48169V67.7856Z" fill="#D2D2D2"/>
<path d="M56.9117 67.7856H74.698V72.9999H56.9117V67.7856Z" fill="#F0F0F0"/>
<path d="M56.9117 67.7856H62.8405V72.9999H56.9117V67.7856Z" fill="#D2D2D2"/>
<path d="M83.581 33.8931H83.1378C81.6883 33.8931 80.4521 34.8147 80.2135 36.0713L78.2866 46.2392C77.8805 48.3836 76.7229 50.3624 74.9754 51.8993L71.7339 54.7502L74.0728 50.6361C74.4833 49.9127 74.6982 49.1149 74.6982 48.3054V47.4698C74.6982 46.3083 73.1019 45.7269 72.1681 46.5481L63.3491 54.3044C61.1258 56.2598 59.8763 58.9125 59.8763 61.6787V67.7859H71.7339V65.2713C71.7339 63.5428 72.515 61.8847 73.9053 60.6632L80.1171 55.1999C82.3419 53.2433 83.5914 50.5983 83.5899 47.8309C83.5869 42.4341 83.5825 33.8944 83.581 33.8931Z" fill="#F0C8A0"/>
<path d="M26.639 57.9062C27.0526 59.1134 27.2675 60.3804 27.2675 61.6775V62.573L42.0879 73.0003L45.0523 70.9146L27.2734 58.4055C27.0496 58.2478 26.8554 58.0692 26.639 57.9062Z" fill="#1EAA96"/>
<path d="M0.598738 33.8931H1.04191C2.4915 33.8931 3.72764 34.8147 3.96627 36.0713L5.89312 46.2392C6.29924 48.3836 7.45683 50.3624 9.20433 51.8993L12.4459 54.7502L10.107 50.6361C9.69642 49.9127 9.4815 49.1149 9.4815 48.3054V47.4698C9.4815 46.3083 11.0778 45.7269 12.0116 46.5481L20.8306 54.3044C23.0539 56.2598 24.3034 58.9125 24.3034 61.6787V67.7859H12.4459V65.2713C12.4459 63.5428 11.6648 61.8847 10.276 60.6632L4.0641 55.1999C1.83785 53.242 0.588363 50.597 0.589845 47.8296C0.592809 42.4341 0.598738 33.8931 0.598738 33.8931Z" fill="#F0C8A0"/>
<path d="M66.3105 54.3029L74.6004 47.0121C74.2491 46.1739 72.9685 45.8428 72.1681 46.5467L63.3491 54.3029C61.1258 56.2583 59.8763 58.9111 59.8763 61.6772V67.7858H62.8363V61.6772C62.8363 58.9111 64.0858 56.2583 66.3105 54.3029Z" fill="#D2AA82"/>
<path d="M13.2364 60.6632L7.02451 55.1999C4.79974 53.2433 3.55025 50.5983 3.55174 47.8309C3.55322 43.6816 3.55618 37.6891 3.55766 35.1328C3.03149 34.3832 2.09474 33.8931 1.04239 33.8931H0.599213C0.597731 33.8944 0.593284 42.4341 0.591802 47.8296C0.588838 50.597 1.83832 53.242 4.06309 55.1986L10.275 60.6619C11.6652 61.8847 12.4464 63.5428 12.4464 65.2713V67.7859H15.4063V65.2713C15.4063 63.5428 14.6267 61.8847 13.2364 60.6632Z" fill="#D2AA82"/>
<path d="M71.7322 20.8571C78.2809 20.8571 83.5897 16.1881 83.5897 10.4286C83.5897 4.66903 78.2809 0 71.7322 0C65.1834 0 59.8746 4.66903 59.8746 10.4286C59.8746 16.1881 65.1834 20.8571 71.7322 20.8571Z" fill="#FAB400"/>
<path d="M62.839 10.4286C62.839 5.11131 67.3671 0.732607 73.2143 0.0899462C72.7267 0.0364997 72.2346 0 71.7322 0C65.1838 0 59.8746 4.66939 59.8746 10.4286C59.8746 16.1878 65.1838 20.8571 71.7322 20.8571C72.2346 20.8571 72.7282 20.8206 73.2143 20.7672C67.3656 20.1245 62.839 15.7458 62.839 10.4286Z" fill="#DC9600"/>
<path d="M79.1432 7.8215L70.2501 15.6429L64.3213 10.4286L67.2857 7.8215L70.2501 10.4286L76.1788 5.21436L79.1432 7.8215Z" fill="#F0F0F0"/>
<path d="M18.3735 42.1183V39.107V7.82129H12.4447C12.4447 7.82129 12.501 43.255 12.5544 43.8207C13.128 44.015 13.6586 44.307 14.1077 44.7032L20.1995 50.0609C19.0301 47.5672 18.3735 44.8818 18.3735 42.1183Z" fill="#1EAA96"/>
<path d="M42.0899 52.1428L57.5032 36.6498C60.5061 33.6308 60.3342 29.0813 57.1089 26.2447C53.7251 23.2687 48.2395 23.2687 44.8571 26.2447L42.0899 28.6785L39.3226 26.2447C35.9388 23.2687 30.4532 23.2687 27.0708 26.2447C23.8456 29.0813 23.6737 33.6308 26.6766 36.6498L42.0899 52.1428Z" fill="#FA6450"/>
<path d="M32.7699 26.2448C33.7244 25.4053 34.8523 24.8305 36.047 24.4642C33.007 23.5321 29.5002 24.1083 27.0708 26.2448C23.8456 29.0814 23.6737 33.6309 26.6766 36.65L42.0899 52.1429L44.9401 49.279L32.3771 36.6513C29.3727 33.6322 29.5446 29.0814 32.7699 26.2448Z" fill="#DC4632"/>
<path d="M47.7892 28.6782L50.5564 26.2444C51.5109 25.4049 52.6389 24.8301 53.8335 24.4638C50.8247 23.5421 47.3667 24.1027 44.9404 26.1858C44.9656 26.2079 42.0649 28.656 42.0901 28.6782H47.7892Z" fill="#DC4632"/>
</svg>
